<svg xmlns="http://www.w3.org/2000/svg" xmlns:xlink="http://www.w3.org/1999/xlink" viewBox="0 0 404.22 520.4"><defs><style>.cls-1{fill:#fff;}.cls-2{fill:#d2f7c6;}.cls-3{fill:#27bd9a;}.cls-4{fill:#068183;}.cls-5{clip-path:url(#clip-path);}.cls-6,.cls-7{fill:none;stroke-miterlimit:10;}.cls-6{stroke:#abefab;stroke-width:0.8px;}.cls-7{stroke:#d2f7c6;stroke-width:2px;}</style><clipPath id="clip-path" transform="translate(2.11 20.4)"><circle class="cls-1" cx="200" cy="169.21" r="100"/></clipPath></defs><g id="Layer_2" data-name="Layer 2"><g id="Layer_1-2" data-name="Layer 1"><path class="cls-2" d="M237.77,322.77c1.69-86.94,72.09-157.33,159-159C395.1,250.68,324.7,321.07,237.77,322.77Z" transform="translate(2.11 20.4)"/><path class="cls-3" d="M393.51,167A159.08,159.08,0,0,1,241.05,319.49,159.08,159.08,0,0,1,393.51,167m6.49-6.49h0A165.44,165.44,0,0,0,234.56,326h0A165.44,165.44,0,0,0,400,160.54Z" transform="translate(2.11 20.4)"/><path class="cls-2" d="M162.23,322.23c-86.93-1.69-157.33-72.09-159-159C90.14,164.9,160.54,235.3,162.23,322.23Z" transform="translate(2.11 20.4)"/><path class="cls-3" d="M6.49,166.49a157.94,157.94,0,0,1,106,46.46A157.92,157.92,0,0,1,159,319,159.08,159.08,0,0,1,6.49,166.49M0,160H0A165.44,165.44,0,0,0,165.44,325.44h0A165.44,165.44,0,0,0,0,160Z" transform="translate(2.11 20.4)"/><circle class="cls-2" cx="198.97" cy="170" r="166.81" transform="translate(-59.82 210.88) rotate(-45)"/><path class="cls-3" d="M199,6.37A163.63,163.63,0,0,1,314.67,285.7,163.62,163.62,0,1,1,83.27,54.3,162.52,162.52,0,0,1,199,6.37M199,0A170,170,0,1,0,369,170,170,170,0,0,0,199,0Z" transform="translate(2.11 20.4)"/><path class="cls-4" d="M107.09,274.37l14.13-13.59,4.75,5a9.94,9.94,0,0,1,1.12,1.4,8.07,8.07,0,0,1,.91,1.81,6.2,6.2,0,0,1,.36,2.11,5.63,5.63,0,0,1-.52,2.3,8.83,8.83,0,0,1-4.2,4,5.69,5.69,0,0,1-2.33.44,6.44,6.44,0,0,1-2.11-.42,7.87,7.87,0,0,1-1.79-1,9.67,9.67,0,0,1-1.37-1.16l-1.54-1.61-4.2,4Zm9.84-3,1.25,1.3a3.58,3.58,0,0,0,.92.69,2.59,2.59,0,0,0,1.1.27,2.85,2.85,0,0,0,1.25-.28,4.72,4.72,0,0,0,1.36-1,4.61,4.61,0,0,0,1-1.32,2.89,2.89,0,0,0,.32-1.23,2.52,2.52,0,0,0-.24-1.09,3.8,3.8,0,0,0-.66-.94l-1.25-1.3Z" transform="translate(2.11 20.4)"/><path class="cls-4" d="M131.36,295.92,141.3,279l6.82,4a10.48,10.48,0,0,1,1.4,1,8.13,8.13,0,0,1,1.27,1.35,5.43,5.43,0,0,1,.85,1.68,4.83,4.83,0,0,1,.14,2,6,6,0,0,1-.85,2.29,6.38,6.38,0,0,1-1.74,2,4.77,4.77,0,0,1-1.93.85,5.62,5.62,0,0,1-2,0,7.92,7.92,0,0,1-1.81-.52A12.44,12.44,0,0,1,142,293l-2.66-1.57-4,6.85ZM140,301l1.71-9.6,4.14,1.88-1.63,10.2Zm1-12.34,2,1.17a4.53,4.53,0,0,0,1.48.58,2.23,2.23,0,0,0,1.33-.17,2.58,2.58,0,0,0,1.09-1.09,2.65,2.65,0,0,0,.44-1.52,2,2,0,0,0-.54-1.19,5.15,5.15,0,0,0-1.25-1l-2-1.16Z" transform="translate(2.11 20.4)"/><path class="cls-4" d="M167.45,312.3a9.18,9.18,0,0,1-2.33-1,7.5,7.5,0,0,1-1.92-1.64,7.42,7.42,0,0,1-1.32-2.34,9.67,9.67,0,0,1-.51-3.07,14.94,14.94,0,0,1,.53-3.82,14.07,14.07,0,0,1,1.41-3.58,9.25,9.25,0,0,1,1.94-2.42,7.65,7.65,0,0,1,2.29-1.39,7.39,7.39,0,0,1,2.48-.49,9.15,9.15,0,0,1,2.5.29,8.69,8.69,0,0,1,2.29,1,7.67,7.67,0,0,1,1.92,1.64,7.44,7.44,0,0,1,1.33,2.34,9.52,9.52,0,0,1,.5,3.06,14.32,14.32,0,0,1-.53,3.8,14,14,0,0,1-1.41,3.59,9.12,9.12,0,0,1-1.93,2.43,7.41,7.41,0,0,1-2.3,1.4,7.65,7.65,0,0,1-2.48.49A8.81,8.81,0,0,1,167.45,312.3Zm.86-3.31a2.74,2.74,0,0,0,1.42,0,3.42,3.42,0,0,0,1.43-.83,6.63,6.63,0,0,0,1.3-1.79,13.61,13.61,0,0,0,1-2.87,13.21,13.21,0,0,0,.48-3,6.51,6.51,0,0,0-.26-2.19,3.53,3.53,0,0,0-.84-1.42,2.72,2.72,0,0,0-1.23-.7,2.92,2.92,0,0,0-1.44,0,3.47,3.47,0,0,0-1.43.83,6.68,6.68,0,0,0-1.31,1.78,13.07,13.07,0,0,0-1,2.85,13.36,13.36,0,0,0-.48,3,6.81,6.81,0,0,0,.26,2.2,3.43,3.43,0,0,0,.85,1.42A2.76,2.76,0,0,0,168.31,309Z" transform="translate(2.11 20.4)"/><path class="cls-4" d="M194.28,316,194,296.37l12.36-.22.05,3.38-7.74.13.11,6.26,6.38-.11.06,3.37-6.38.11.11,6.59Z" transform="translate(2.11 20.4)"/><path class="cls-4" d="M226.22,312.66l-1-3.23,3.74-1.12L225.3,296l-3.74,1.12-1-3.23,11.94-3.58,1,3.24-3.77,1.12L233.42,307l3.76-1.13,1,3.23Z" transform="translate(2.11 20.4)"/><path class="cls-4" d="M255.32,301.31l-10.2-16.73,4-2.42L257.53,296l5.77-3.51,1.75,2.89Z" transform="translate(2.11 20.4)"/><path class="cls-4" d="M279.08,284.25,265,270.6l9.28-9.56,2.42,2.35-6.06,6.25,3.53,3.43,5.38-5.55,2.4,2.32-5.38,5.55,3.29,3.2,6.06-6.26,2.43,2.35Z" transform="translate(2.11 20.4)"/><path class="cls-3" d="M300,500c-80,0-100-20-100-20s-20,20-100,20V198.8H300Z" transform="translate(2.11 20.4)"/><path class="cls-4" d="M100,235.73a119.27,119.27,0,0,0,200,0V197H100Z" transform="translate(2.11 20.4)"/><path class="cls-3" d="M78.43,161.64h0a20,20,0,0,0-28.33,0h0A20,20,0,0,0,78.43,161.64Z" transform="translate(2.11 20.4)"/><path class="cls-3" d="M350,161.64h0a20,20,0,0,0-28.33,0h0A20,20,0,0,0,350,161.64Z" transform="translate(2.11 20.4)"/><circle class="cls-3" cx="202.11" cy="189.61" r="108"/><circle class="cls-1" cx="202.11" cy="189.61" r="100"/><g class="cls-5"><path class="cls-6" d="M259.58,144.64h0a0,0,0,0,1,0,0v0a57.47,57.47,0,0,1-57.47,57.47h0a0,0,0,0,1,0,0v0A57.47,57.47,0,0,1,259.58,144.64Z"/><path class="cls-6" d="M142.53,124.24h0A57.47,57.47,0,0,1,200,181.71v0a0,0,0,0,1,0,0h0a57.47,57.47,0,0,1-57.47-57.47v0A0,0,0,0,1,142.53,124.24Z" transform="translate(344.64 326.35) rotate(-180)"/><path class="cls-6" d="M403.82.4h0a0,0,0,0,1,0,0v0A201.71,201.71,0,0,1,202.11,202.11h0a0,0,0,0,1,0,0v0A201.71,201.71,0,0,1,403.82.4Z"/><path class="cls-6" d="M-1.71-20h0A201.71,201.71,0,0,1,200,181.71v0a0,0,0,0,1,0,0h0A201.71,201.71,0,0,1-1.71-20v0A0,0,0,0,1-1.71-20Z" transform="translate(200.4 182.11) rotate(180)"/><polyline class="cls-6" points="202.11 202.11 202.11 202.11 202.11 202.11"/><path class="cls-6" d="M-1.71,383.42h0C-1.71,272,88.6,181.71,200,181.71" transform="translate(2.11 20.4)"/><polyline class="cls-6" points="202.11 202.11 202.11 202.11 202.11 202.11"/><path class="cls-6" d="M200,467h0c-78.77-78.77-78.77-206.49,0-285.26" transform="translate(2.11 20.4)"/><path class="cls-6" d="M401.71,383.42h0C401.71,272,311.4,181.71,200,181.71h0" transform="translate(2.11 20.4)"/><path class="cls-6" d="M200,467h0c78.77-78.77,78.77-206.49,0-285.26h0" transform="translate(2.11 20.4)"/><path class="cls-3" d="M171.26,153h0A28.74,28.74,0,0,1,200,181.71v0a0,0,0,0,1,0,0h0A28.74,28.74,0,0,1,171.26,153v0A0,0,0,0,1,171.26,153Z" transform="translate(373.37 355.08) rotate(180)"/><path class="cls-3" d="M230.84,173.37h0a0,0,0,0,1,0,0v0a28.74,28.74,0,0,1-28.74,28.74h0a0,0,0,0,1,0,0v0A28.74,28.74,0,0,1,230.84,173.37Z"/></g><path class="cls-4" d="M117.31,77.16l-2.81-4,4.06-2.87-9-12.64-4,2.87-2.81-4,13.63-9.66,2.81,4L115.1,53.8l9,12.63,4.08-2.89,2.81,4Z" transform="translate(2.11 20.4)"/><path class="cls-4" d="M142.62,61l-9.1-23.5,9.29-3.6,12,16.51-1.21.47-7.13-18.4L152.75,30l9.1,23.5L154,56.56,141.54,40.29l.26-.09,7.09,18.33Z" transform="translate(2.11 20.4)"/><path class="cls-4" d="M179.75,49.91l-2.48-20.19-6.36.78-.59-4.82,19.44-2.39.59,4.83-6.4.78,2.48,20.19Z" transform="translate(2.11 20.4)"/><path class="cls-4" d="M206.47,48.45l3.06-25L227,25.57l-.59,4.82-10.79-1.32L215,34.58l9.57,1.17-.58,4.79-9.58-1.18-.62,5.08,10.79,1.32-.59,4.82Z" transform="translate(2.11 20.4)"/><path class="cls-4" d="M237.11,53.82l9.09-23.5,9.84,3.8a15,15,0,0,1,2.06,1,11.87,11.87,0,0,1,2,1.49,7.33,7.33,0,0,1,1.5,2,6,6,0,0,1,.66,2.57,7.93,7.93,0,0,1-.61,3.18,8.49,8.49,0,0,1-1.87,3,6.28,6.28,0,0,1-2.4,1.49,7.55,7.55,0,0,1-2.61.38,11.34,11.34,0,0,1-2.51-.34c-.8-.21-1.49-.43-2.08-.65l-3.23-1.25-3.55,9.2Zm11.51-11.1,2.18.84a6,6,0,0,0,1.95.45,2.51,2.51,0,0,0,1.53-.41,3.61,3.61,0,0,0,1.26-3.25,2.35,2.35,0,0,0-.88-1.28,7.12,7.12,0,0,0-1.75-1l-2.19-.84ZM249,58.43l.27-12.32,6.39,1.73,0,13.16Z" transform="translate(2.11 20.4)"/><path class="cls-4" d="M265.6,66.36l14.56-20.57,8.13,5.76-7.13,19.12-1.06-.75,11.4-16.1L297,57.71,282.43,78.28l-6.9-4.89,6.7-19.34.22.15-11.36,16Z" transform="translate(2.11 20.4)"/><path class="cls-7" d="M300,489.14c-80,0-100-20-100-20s-20,20-100,20" transform="translate(2.11 20.4)"/><path class="cls-7" d="M206.46,452.68h0a0,0,0,0,1,0,0v0a12.93,12.93,0,0,1-12.93,12.93h0a0,0,0,0,1,0,0v0A12.93,12.93,0,0,1,206.46,452.68Z" transform="translate(-263.98 296.3) rotate(-45)"/></g></g></svg>