<svg xmlns="http://www.w3.org/2000/svg" xmlns:xlink="http://www.w3.org/1999/xlink" viewBox="0 0 393.97 501.92"><defs><style>.cls-1{fill:#fff;}.cls-2{fill:#ffefe9;}.cls-3,.cls-9{fill:#e29d98;}.cls-4{fill:#b54845;}.cls-5{clip-path:url(#clip-path);}.cls-6,.cls-8{fill:none;}.cls-6{stroke:#f5c1b3;stroke-width:0.8px;}.cls-6,.cls-8,.cls-9{stroke-miterlimit:10;}.cls-7{fill:#f5c1b3;}.cls-8,.cls-9{stroke:#ffefe9;stroke-width:2px;}</style><clipPath id="clip-path"><circle class="cls-1" cx="196.99" cy="172.33" r="100"/></clipPath></defs><g id="Layer_2" data-name="Layer 2"><g id="Layer_1-2" data-name="Layer 1"><path class="cls-2" d="M51.86,290.63a173.8,173.8,0,0,1,0-241.26L172.49,170Z"/><path class="cls-3" d="M51.92,53.93,168,170,51.92,286.07a170.63,170.63,0,0,1,0-232.14m-.08-9.08a177,177,0,0,0,0,250.3L177,170,51.84,44.85Z"/><path class="cls-2" d="M221.48,170,342.11,49.37a173.8,173.8,0,0,1,0,241.26Z"/><path class="cls-3" d="M342.05,53.93a170.63,170.63,0,0,1,0,232.14L226,170,342.05,53.93m.08-9.08L217,170,342.13,295.15a177,177,0,0,0,0-250.3Z"/><circle class="cls-2" cx="196.99" cy="170" r="166.81"/><path class="cls-3" d="M197,6.37A163.63,163.63,0,0,1,312.69,285.7,163.63,163.63,0,0,1,81.28,54.3,162.56,162.56,0,0,1,197,6.37M197,0A170,170,0,1,0,367,170,170,170,0,0,0,197,0Z"/><path class="cls-4" d="M109.62,269.14l14.12-13.59,4.76,4.94a10.83,10.83,0,0,1,1.11,1.41,7.68,7.68,0,0,1,.91,1.81,6.15,6.15,0,0,1,.36,2.11,5.5,5.5,0,0,1-.52,2.3,7.53,7.53,0,0,1-1.75,2.37,7.83,7.83,0,0,1-2.44,1.67,5.72,5.72,0,0,1-2.33.44,6.4,6.4,0,0,1-2.11-.43,7.54,7.54,0,0,1-1.8-1,10.27,10.27,0,0,1-1.36-1.17l-1.54-1.6-4.2,4Zm9.84-3,1.25,1.3a3.38,3.38,0,0,0,.92.68,2.56,2.56,0,0,0,1.1.28,2.87,2.87,0,0,0,1.25-.29,5,5,0,0,0,1.36-1,4.84,4.84,0,0,0,1-1.32,2.82,2.82,0,0,0,.32-1.23,2.56,2.56,0,0,0-.24-1.1,3.51,3.51,0,0,0-.66-.93l-1.25-1.3Z"/><path class="cls-4" d="M133.89,290.69l9.94-16.89,6.81,4a9.87,9.87,0,0,1,1.4,1,8.19,8.19,0,0,1,1.28,1.35,5.15,5.15,0,0,1,.84,1.67,4.73,4.73,0,0,1,.15,2,6.25,6.25,0,0,1-.86,2.29,6.36,6.36,0,0,1-1.73,2,5,5,0,0,1-1.94.85,5.61,5.61,0,0,1-2,0,7.57,7.57,0,0,1-1.81-.52,13.28,13.28,0,0,1-1.46-.72l-2.66-1.56-4,6.84Zm8.6,5.06,1.72-9.6,4.14,1.89-1.63,10.2Zm1-12.33,2,1.17a4.41,4.41,0,0,0,1.48.57,2.12,2.12,0,0,0,1.32-.16,2.61,2.61,0,0,0,1.09-1.1,2.56,2.56,0,0,0,.45-1.51,2.06,2.06,0,0,0-.54-1.2,5.53,5.53,0,0,0-1.26-1l-2-1.15Z"/><path class="cls-4" d="M170,307.06a8.45,8.45,0,0,1-2.32-1,7.35,7.35,0,0,1-1.93-1.64,7.82,7.82,0,0,1-1.32-2.34,9.36,9.36,0,0,1-.5-3.07,14.16,14.16,0,0,1,.53-3.82,14.37,14.37,0,0,1,1.4-3.57,9.09,9.09,0,0,1,1.94-2.42,7.49,7.49,0,0,1,2.3-1.39,7.34,7.34,0,0,1,2.48-.49,9.19,9.19,0,0,1,2.5.29,9,9,0,0,1,2.29,1,7.67,7.67,0,0,1,1.92,1.64,7.48,7.48,0,0,1,1.32,2.33,9.34,9.34,0,0,1,.5,3.06,14.35,14.35,0,0,1-.52,3.81,14.77,14.77,0,0,1-1.41,3.59,9.47,9.47,0,0,1-1.94,2.43,7.49,7.49,0,0,1-2.3,1.4,7.86,7.86,0,0,1-2.47.49A8.89,8.89,0,0,1,170,307.06Zm.86-3.3a2.85,2.85,0,0,0,1.42,0,3.47,3.47,0,0,0,1.43-.83,6.57,6.57,0,0,0,1.3-1.79,13.82,13.82,0,0,0,1.05-2.87,13.21,13.21,0,0,0,.48-3,6.27,6.27,0,0,0-.26-2.19,3.34,3.34,0,0,0-.83-1.42,2.81,2.81,0,0,0-1.24-.7,2.71,2.71,0,0,0-1.44,0,3.36,3.36,0,0,0-1.43.83,6.36,6.36,0,0,0-1.3,1.78,13,13,0,0,0-1.06,2.85,13.28,13.28,0,0,0-.48,3,6.43,6.43,0,0,0,.27,2.19,3.3,3.3,0,0,0,.84,1.43A2.91,2.91,0,0,0,170.83,303.76Z"/><path class="cls-4" d="M196.81,310.73l-.34-19.6,12.36-.21.06,3.37-7.74.14.11,6.26,6.38-.11.06,3.37-6.39.11.12,6.59Z"/><path class="cls-4" d="M228.74,307.43l-1-3.23,3.74-1.12-3.68-12.31-3.75,1.12-1-3.23,11.93-3.58,1,3.23-3.77,1.13,3.69,12.31,3.77-1.13,1,3.24Z"/><path class="cls-4" d="M257.84,296.08l-10.19-16.74,4-2.42,8.44,13.86,5.76-3.51,1.76,2.88Z"/><path class="cls-4" d="M281.6,279l-14.07-13.65,9.28-9.57,2.42,2.35-6.06,6.25,3.54,3.44,5.38-5.55,2.39,2.32-5.38,5.55,3.3,3.19,6.06-6.25,2.42,2.35Z"/><path class="cls-3" d="M97,208.2V501.92c55.22,0,73.07-40,100-40s44.77,40,100,40V208.2Z"/><path class="cls-4" d="M97,237.65a119.27,119.27,0,0,0,200,0V198.93H97Z"/><path class="cls-4" d="M110,82.53,94.28,62.86,107,52.71l3,3.79-7.42,6,4.63,5.77,6-4.84,3,3.79-6,4.84,5.06,6.31Z"/><path class="cls-4" d="M132,66.41,121,43.72l9.5-4.59a14.28,14.28,0,0,1,2.14-.82,11.13,11.13,0,0,1,2.45-.43,7.1,7.1,0,0,1,2.5.27A6.11,6.11,0,0,1,140,39.43,8,8,0,0,1,141.86,42a8.47,8.47,0,0,1,.93,3.43,6.18,6.18,0,0,1-.54,2.77,7.93,7.93,0,0,1-1.5,2.17,11.24,11.24,0,0,1-2,1.6,18.74,18.74,0,0,1-1.9,1.08l-3.11,1.51,4.3,8.87Zm-.26-16,2.11-1a6,6,0,0,0,1.65-1.13,2.55,2.55,0,0,0,.75-1.39,3,3,0,0,0-.34-1.74,3,3,0,0,0-1.18-1.4,2.38,2.38,0,0,0-1.53-.23,6.85,6.85,0,0,0-1.9.64l-2.1,1Zm11.76,10.42-8.82-8.61,5.63-3.48,9.61,9Z"/><path class="cls-4" d="M159.62,54.56,154,30l17.16-3.91,1.08,4.73-10.6,2.42,1.24,5.41,9.4-2.15,1.07,4.7L164,43.34l1.13,5,10.6-2.41,1.08,4.74Z"/><path class="cls-4" d="M196.79,49.8a13.55,13.55,0,0,1-4.76-.72,10.1,10.1,0,0,1-3.68-2.16,6.83,6.83,0,0,1-2-3.29l6.37-2.73a5.86,5.86,0,0,0,.84,1.8,4.85,4.85,0,0,0,1.51,1.48,3.71,3.71,0,0,0,2.14.57,4.82,4.82,0,0,0,1.59-.25,1.89,1.89,0,0,0,.95-.71,2.08,2.08,0,0,0,.3-1.23,1.53,1.53,0,0,0-.38-1,4,4,0,0,0-1.06-.87A12,12,0,0,0,197,40c-.61-.25-1.27-.48-2-.71a30.91,30.91,0,0,1-3.13-1.17,11.59,11.59,0,0,1-2.6-1.54,6.58,6.58,0,0,1-1.78-2.18,6.9,6.9,0,0,1-.68-3.08,6,6,0,0,1,.52-2.66,6.11,6.11,0,0,1,1.54-2,8.63,8.63,0,0,1,2.25-1.43,12.52,12.52,0,0,1,2.7-.86,16.25,16.25,0,0,1,2.86-.31,13.18,13.18,0,0,1,4.49.67,10.2,10.2,0,0,1,3.44,1.92,5.78,5.78,0,0,1,1.84,2.73l-6.25,2.8a5.09,5.09,0,0,0-.79-1.6,3.53,3.53,0,0,0-1.25-1.09A3.27,3.27,0,0,0,196.5,29a5.17,5.17,0,0,0-1.08.12,2.67,2.67,0,0,0-.84.36,1.6,1.6,0,0,0-.56.6,1.78,1.78,0,0,0-.19.85,1.71,1.71,0,0,0,.46,1.12,4.37,4.37,0,0,0,1.33.94,16.71,16.71,0,0,0,2.17.85c.76.24,1.56.51,2.41.81a20.83,20.83,0,0,1,2.47,1.09,11.22,11.22,0,0,1,2.19,1.48,6.71,6.71,0,0,1,1.58,2,5.93,5.93,0,0,1,.62,2.69,6.93,6.93,0,0,1-.56,3,6.31,6.31,0,0,1-1.62,2.21,8.83,8.83,0,0,1-2.36,1.46,13.82,13.82,0,0,1-2.81.83A18.4,18.4,0,0,1,196.79,49.8Z"/><path class="cls-4" d="M216.16,50.41l5.6-24.57,6.56,1.5-2.15,9.44,6.46,1.47,2.15-9.44,6.56,1.49-5.59,24.57-6.57-1.49L231.56,43l-6.46-1.47-2.37,10.43Z"/><path class="cls-4" d="M245.68,58.53l11-22.69,15.85,7.67-2.12,4.37-9.78-4.73-2.42,5,8.69,4.2-2.1,4.34-8.69-4.2-2.22,4.61,9.79,4.73-2.12,4.37Z"/><path class="cls-4" d="M270.71,71.94l15.75-19.67,8.24,6.59a15.06,15.06,0,0,1,1.66,1.58,11.33,11.33,0,0,1,1.45,2,7.43,7.43,0,0,1,.83,2.37,6.17,6.17,0,0,1-.16,2.65,7.72,7.72,0,0,1-1.54,2.85,8.2,8.2,0,0,1-2.69,2.32,6.09,6.09,0,0,1-2.74.7,7.58,7.58,0,0,1-2.6-.42,11.24,11.24,0,0,1-2.29-1.09,19.45,19.45,0,0,1-1.79-1.24l-2.7-2.16L276,76.14Zm10,8,4-11.67,5.57,3.59-4,12.54ZM285,64.82l1.82,1.46a6.24,6.24,0,0,0,1.73,1,2.53,2.53,0,0,0,1.58.07,2.9,2.9,0,0,0,1.42-1.06,3,3,0,0,0,.76-1.66,2.46,2.46,0,0,0-.45-1.49,7.1,7.1,0,0,0-1.39-1.43l-1.83-1.46Z"/><circle class="cls-3" cx="196.99" cy="172.33" r="108"/><circle class="cls-1" cx="196.99" cy="172.33" r="100"/><g class="cls-5"><path class="cls-6" d="M91.3,172.33a43.82,43.82,0,0,0,74.8,31.08"/><path class="cls-6" d="M227.87,141.44a30.89,30.89,0,0,0-61.77,0"/><path class="cls-6" d="M197,172.33a30.89,30.89,0,0,0,30.88-30.89"/><path class="cls-6" d="M227.58,203.2a30.88,30.88,0,0,0,0-61.76"/><path class="cls-6" d="M196.75,172.33a30.89,30.89,0,0,0-30.88-30.89"/><path class="cls-6" d="M166.1,203.21a30.89,30.89,0,0,0,61.77,0"/><path class="cls-6" d="M197,172.33a30.88,30.88,0,0,0-30.89,30.88"/><path class="cls-6" d="M166.1,141.44a30.89,30.89,0,0,0,0,61.77"/><path class="cls-6" d="M196.7,172.33a30.88,30.88,0,0,0,30.88,30.88"/><path class="cls-6" d="M227.87,141.23a43.82,43.82,0,0,1,74.67,27.58"/><path class="cls-6" d="M197,66.64a43.82,43.82,0,0,0-31.1,74.8"/><path class="cls-6" d="M228.08,203.2a43.82,43.82,0,0,1-31,74.8"/><rect class="cls-1" x="181.99" y="157.33" width="30" height="30"/></g><path class="cls-7" d="M197,142.33a15,15,0,0,0-15,15h30A15,15,0,0,0,197,142.33Z"/><path class="cls-7" d="M212,157.33v30a15,15,0,0,0,0-30Z"/><path class="cls-7" d="M197,202.33a15,15,0,0,0,15-15H182A15,15,0,0,0,197,202.33Z"/><path class="cls-7" d="M182,157.33a15,15,0,0,0,0,30Z"/><path class="cls-7" d="M186.58,161.92a7.35,7.35,0,0,0,0,10.41L197,161.92A7.35,7.35,0,0,0,186.58,161.92Z"/><path class="cls-7" d="M197,161.92l10.4,10.41A7.36,7.36,0,0,0,197,161.92Z"/><path class="cls-7" d="M207.39,182.73a7.34,7.34,0,0,0,0-10.4L197,182.73A7.34,7.34,0,0,0,207.39,182.73Z"/><path class="cls-7" d="M186.58,172.33A7.36,7.36,0,0,0,197,182.73Z"/><circle class="cls-3" cx="67.29" cy="167" r="9.9"/><circle class="cls-3" cx="331.44" cy="167" r="9.9"/><path class="cls-8" d="M97,491.92c55.22,0,73.07-40,100-40s44.77,40,100,40"/><circle class="cls-9" cx="196.99" cy="441.92" r="10"/></g></g></svg>