<svg xmlns="http://www.w3.org/2000/svg" xmlns:xlink="http://www.w3.org/1999/xlink" viewBox="0 0 404.21 500"><defs><style>.cls-1{fill:#fff;}.cls-2{fill:#c2f4ff;}.cls-3{fill:#2475b4;}.cls-4{fill:#1e377e;}.cls-5{fill:#294f9b;}.cls-6{fill:#0b2156;}.cls-7{clip-path:url(#clip-path);}.cls-11,.cls-8{fill:none;stroke-miterlimit:10;}.cls-8{stroke:#67b8e5;stroke-width:0.8px;}.cls-9{fill:#ecb14e;}.cls-10{fill:#f5c1b3;}.cls-11{stroke:#c2f4ff;stroke-width:2px;}</style><clipPath id="clip-path"><path class="cls-1" d="M240.21,76.51H164a8,8,0,0,0-5.66,2.34l-53.89,53.9a8,8,0,0,0-2.34,5.65v76.22a8,8,0,0,0,2.34,5.66l53.89,53.89a8,8,0,0,0,5.66,2.34h76.21a8,8,0,0,0,5.66-2.34l53.89-53.89a8,8,0,0,0,2.35-5.66V138.4a8,8,0,0,0-2.35-5.65l-53.89-53.9A8,8,0,0,0,240.21,76.51Z"/></clipPath></defs><g id="Layer_2" data-name="Layer 2"><g id="Layer_1-2" data-name="Layer 1"><path class="cls-2" d="M192.57,230.36,344.08,78.84a156.17,156.17,0,0,1,39.25,151.52Z"/><path class="cls-3" d="M344.06,81.87a154.06,154.06,0,0,1,37.65,146.36h-184L344.06,81.87m0-6L187.43,232.48H384.94A158.06,158.06,0,0,0,344.86,76.61l-.78-.77Z"/><path class="cls-2" d="M224.63,351.45a5.81,5.81,0,0,1-4.11-1.7L196.8,326a5.78,5.78,0,0,1-1.71-4.11V187.3a5.78,5.78,0,0,1,1.71-4.11l23.72-23.72a5.77,5.77,0,0,1,4.11-1.7H300a5.77,5.77,0,0,1,4.11,1.7l53.32,53.32a5.78,5.78,0,0,1,1.71,4.11v75.41a5.78,5.78,0,0,1-1.71,4.11l-53.32,53.33a5.86,5.86,0,0,1-4.11,1.7Z"/><path class="cls-3" d="M300,159.87a3.68,3.68,0,0,1,2.62,1.09L356,214.28a3.68,3.68,0,0,1,1.09,2.62v75.41a3.68,3.68,0,0,1-1.09,2.62l-53.32,53.33a3.68,3.68,0,0,1-2.62,1.08H224.63a3.68,3.68,0,0,1-2.62-1.08l-23.72-23.73a3.68,3.68,0,0,1-1.09-2.62V187.3a3.68,3.68,0,0,1,1.09-2.62L222,161a3.68,3.68,0,0,1,2.62-1.09H300m0-4.21H224.63A7.91,7.91,0,0,0,219,158L195.31,181.7a7.91,7.91,0,0,0-2.32,5.6V321.91a7.89,7.89,0,0,0,2.32,5.6L219,351.24a8,8,0,0,0,5.6,2.32H300a7.93,7.93,0,0,0,5.6-2.32L359,297.91a7.92,7.92,0,0,0,2.31-5.6V216.9a7.94,7.94,0,0,0-2.31-5.6L305.64,158a7.89,7.89,0,0,0-5.6-2.32Z"/><polygon class="cls-2" points="203.78 224.29 398.92 224.29 204.53 411.01 203.78 224.29"/><path class="cls-3" d="M205.92,226.42H393.63L206.64,406l-.72-179.62m-4.28-4.26L202.42,416,404.21,222.16Z"/><path class="cls-2" d="M20.88,230.36A156.17,156.17,0,0,1,60.13,78.84L211.64,230.36Z"/><path class="cls-3" d="M60.15,81.87,206.5,228.23H22.5A154.06,154.06,0,0,1,60.15,81.87m0-6-.79.77A158.06,158.06,0,0,0,19.27,232.48H216.78L60.14,75.84Z"/><path class="cls-2" d="M104.17,351.45a5.81,5.81,0,0,1-4.11-1.7L46.74,296.42A5.76,5.76,0,0,1,45,292.31V216.9a5.78,5.78,0,0,1,1.71-4.11l53.32-53.32a5.77,5.77,0,0,1,4.11-1.7h75.41a5.77,5.77,0,0,1,4.11,1.7l23.73,23.72a5.81,5.81,0,0,1,1.7,4.11V321.91a5.81,5.81,0,0,1-1.7,4.11l-23.73,23.73a5.81,5.81,0,0,1-4.11,1.7Z"/><path class="cls-3" d="M179.58,159.87A3.68,3.68,0,0,1,182.2,161l23.73,23.72A3.68,3.68,0,0,1,207,187.3V321.91a3.68,3.68,0,0,1-1.08,2.62L182.2,348.26a3.68,3.68,0,0,1-2.62,1.08H104.17a3.68,3.68,0,0,1-2.62-1.08L48.23,294.93a3.68,3.68,0,0,1-1.09-2.62V216.9a3.68,3.68,0,0,1,1.09-2.62L101.55,161a3.68,3.68,0,0,1,2.62-1.09h75.41m0-4.21H104.17a7.91,7.91,0,0,0-5.6,2.32L45.25,211.3a7.91,7.91,0,0,0-2.32,5.6v75.41a7.89,7.89,0,0,0,2.32,5.6l53.32,53.33a8,8,0,0,0,5.6,2.32h75.41a7.93,7.93,0,0,0,5.6-2.32l23.73-23.73a7.93,7.93,0,0,0,2.32-5.6V187.3a8,8,0,0,0-2.32-5.6L185.18,158a7.89,7.89,0,0,0-5.6-2.32Z"/><polygon class="cls-2" points="5.29 224.29 200.43 224.29 199.68 411.01 5.29 224.29"/><path class="cls-3" d="M198.29,226.42,197.57,406l-187-179.62H198.29m4.28-4.26H0L201.79,416l.78-193.83Z"/><path class="cls-2" d="M128.47,306.53a9,9,0,0,1-6.43-2.67L44.59,226.41A9,9,0,0,1,41.93,220V46a9,9,0,0,1,2.66-6.43L79.05,5.08a9,9,0,0,1,6.43-2.66H318.74a9,9,0,0,1,6.42,2.66l34.46,34.46A9,9,0,0,1,362.28,46V220a9,9,0,0,1-2.66,6.43l-77.45,77.45a9,9,0,0,1-6.43,2.67Z"/><path class="cls-3" d="M318.74,4.83a6.62,6.62,0,0,1,4.71,2l34.46,34.46a6.63,6.63,0,0,1,2,4.72V220a6.64,6.64,0,0,1-2,4.72l-77.45,77.46a6.63,6.63,0,0,1-4.72,1.95H128.47a6.63,6.63,0,0,1-4.72-1.95L46.3,224.7a6.64,6.64,0,0,1-2-4.72V46a6.63,6.63,0,0,1,2-4.72L80.76,6.79a6.63,6.63,0,0,1,4.72-2H318.74m0-4.83H85.48a11.5,11.5,0,0,0-8.14,3.37L42.88,37.83A11.5,11.5,0,0,0,39.51,46V220a11.51,11.51,0,0,0,3.37,8.14l77.45,77.45a11.51,11.51,0,0,0,8.14,3.37H275.74a11.51,11.51,0,0,0,8.14-3.37l77.45-77.45A11.51,11.51,0,0,0,364.7,220V46a11.5,11.5,0,0,0-3.37-8.14L326.87,3.37A11.49,11.49,0,0,0,318.74,0Z"/><path class="cls-4" d="M116.91,49.87V24.67h6.77V45H132v4.86Z"/><path class="cls-4" d="M143.3,49.87V24.67h17.61v4.86H150v5.55h9.65V39.9H150V45h10.88v4.86Z"/><path class="cls-4" d="M193.24,49.87h-6.79l-.9-5.07h-6l-.9,5.07h-6.79l5.47-25.2h10.44ZM182.36,29.53l-1.89,10.41h4.14l-1.89-10.41Z"/><path class="cls-4" d="M203.3,49.87V24.67h8.53a20.64,20.64,0,0,1,2.7.18,12.76,12.76,0,0,1,2.66.65,8.32,8.32,0,0,1,2.41,1.35,8.43,8.43,0,0,1,2,2.27,11.21,11.21,0,0,1,1.34,3.39,20.77,20.77,0,0,1,.47,4.76,20.67,20.67,0,0,1-.47,4.75,11.34,11.34,0,0,1-1.34,3.41,8.23,8.23,0,0,1-2,2.26,8.59,8.59,0,0,1-2.41,1.36,12.74,12.74,0,0,1-2.66.64,20.64,20.64,0,0,1-2.7.18ZM210,45h1.26a5.81,5.81,0,0,0,2.31-.42,3.75,3.75,0,0,0,1.62-1.34,6.49,6.49,0,0,0,.95-2.39,18.38,18.38,0,0,0,.3-3.59,18.34,18.34,0,0,0-.3-3.58,6.49,6.49,0,0,0-.95-2.39A3.75,3.75,0,0,0,213.6,30a5.64,5.64,0,0,0-2.31-.43H210Z"/><path class="cls-4" d="M235.1,49.87V24.67h17.61v4.86H241.83v5.55h9.65V39.9h-9.65V45h10.88v4.86Z"/><path class="cls-4" d="M264.87,49.87V24.67h10.55a14.69,14.69,0,0,1,2.29.2,10.81,10.81,0,0,1,2.39.68,7.36,7.36,0,0,1,2.14,1.33,6.08,6.08,0,0,1,1.53,2.17,7.79,7.79,0,0,1,.58,3.18,8.38,8.38,0,0,1-.65,3.5A6.2,6.2,0,0,1,282,38a7.69,7.69,0,0,1-2.29,1.3,11.81,11.81,0,0,1-2.47.59,20.25,20.25,0,0,1-2.18.14h-3.45v9.86Zm6.74-14.5H274a6.17,6.17,0,0,0,2-.29,2.48,2.48,0,0,0,1.27-.93,3,3,0,0,0,.45-1.72,3,3,0,0,0-.45-1.77,2.29,2.29,0,0,0-1.27-.87,6.84,6.84,0,0,0-2-.26h-2.34Zm6,14.5-4.19-11.59,6.59-.68,4.73,12.27Z"/><path class="cls-5" d="M79.81,172.33H58.21l4-16a1.73,1.73,0,0,1,1.68-1.31H74.14a1.72,1.72,0,0,1,1.67,1.31Z"/><path class="cls-5" d="M345.2,172.33H323.6l4-16a1.74,1.74,0,0,1,1.68-1.31h10.26a1.74,1.74,0,0,1,1.68,1.31Z"/><path class="cls-5" d="M268.79,500H135.42a8,8,0,0,1-5.66-2.34l-25.31-25.32a8,8,0,0,1-2.34-5.65V151.85a8,8,0,0,1,8-8h184a8,8,0,0,1,8,8V466.69a8,8,0,0,1-2.35,5.65l-25.31,25.32A8,8,0,0,1,268.79,500Z"/><path class="cls-6" d="M294.11,127.85h-184a8,8,0,0,0-8,8V246.21l47.47,47.47a9.6,9.6,0,0,0,6.79,2.81h91.44a9.6,9.6,0,0,0,6.79-2.81l47.51-47.5V135.85A8,8,0,0,0,294.11,127.85Z"/><path class="cls-5" d="M243.26,68.53H161a8.64,8.64,0,0,0-6.11,2.53l-58.2,58.19a8.64,8.64,0,0,0-2.53,6.11v82.3a8.64,8.64,0,0,0,2.53,6.11l58.2,58.2A8.64,8.64,0,0,0,161,284.5h82.31a8.64,8.64,0,0,0,6.11-2.53l58.21-58.2a8.64,8.64,0,0,0,2.53-6.11v-82.3a8.64,8.64,0,0,0-2.53-6.11L249.37,71.06A8.64,8.64,0,0,0,243.26,68.53Z"/><path class="cls-1" d="M240.21,76.51H164a8,8,0,0,0-5.66,2.34l-53.89,53.9a8,8,0,0,0-2.34,5.65v76.22a8,8,0,0,0,2.34,5.66l53.89,53.89a8,8,0,0,0,5.66,2.34h76.21a8,8,0,0,0,5.66-2.34l53.89-53.89a8,8,0,0,0,2.35-5.66V138.4a8,8,0,0,0-2.35-5.65l-53.89-53.9A8,8,0,0,0,240.21,76.51Z"/><g class="cls-7"><rect class="cls-8" x="144.69" y="119.09" width="114.84" height="114.84" transform="translate(-65.61 194.63) rotate(-45)"/><path class="cls-8" d="M256.85,202.3a36.48,36.48,0,0,0,0-51.58l-25.79,25.79Z"/><path class="cls-8" d="M147.36,202.3a36.48,36.48,0,0,1,0-51.58l25.8,25.79Z"/><path class="cls-8" d="M176.31,231.25a36.47,36.47,0,0,0,51.59,0l-25.79-25.79Z"/><path class="cls-8" d="M176.31,121.77a36.47,36.47,0,0,1,51.59,0l-25.79,25.79Z"/><rect class="cls-1" x="173.69" y="148.09" width="56.84" height="56.84" transform="translate(-65.61 194.63) rotate(-45)"/><path class="cls-8" d="M214.37,74.48h16.4a5.51,5.51,0,0,1,5.36,4.18l12.77,51.06L300,142.49a5.52,5.52,0,0,1,4.18,5.35v16.41"/><path class="cls-8" d="M189.84,74.48h-16.4a5.51,5.51,0,0,0-5.36,4.18l-12.76,51.06-51.06,12.77a5.52,5.52,0,0,0-4.19,5.35v16.41"/><path class="cls-8" d="M214.37,278.55h16.4a5.52,5.52,0,0,0,5.36-4.19L248.9,223.3,300,210.54a5.54,5.54,0,0,0,4.18-5.36V188.77"/><path class="cls-8" d="M189.84,278.55h-16.4a5.52,5.52,0,0,1-5.36-4.19L155.32,223.3l-51.06-12.76a5.54,5.54,0,0,1-4.19-5.36V188.77"/></g><path class="cls-4" d="M236.16,129.36l-6.22-6.22a3,3,0,0,0-3.62-.45l-24.21,14.53,13.09,13.1Z"/><path class="cls-4" d="M168.05,129.36l6.22-6.22a3,3,0,0,1,3.62-.45l24.22,14.53L189,150.32Z"/><path class="cls-4" d="M249.26,142.46l6.22,6.22a3,3,0,0,1,.44,3.62L241.4,176.51l-13.1-13.1Z"/><path class="cls-4" d="M155,210.56l-6.22-6.22a3,3,0,0,1-.44-3.62l14.52-24.21,13.1,13.1Z"/><path class="cls-4" d="M168.05,223.66l6.22,6.22a3,3,0,0,0,3.62.45l24.22-14.53L189,202.71Z"/><path class="cls-4" d="M155,142.46l-6.22,6.22a3,3,0,0,0-.44,3.62l14.52,24.21,13.1-13.1Z"/><path class="cls-4" d="M249.26,210.56l6.22-6.22a3,3,0,0,0,.44-3.62L241.4,176.51l-13.1,13.1Z"/><path class="cls-4" d="M236.16,223.66l-6.22,6.22a3,3,0,0,1-3.62.45L202.11,215.8l13.09-13.09Z"/><path class="cls-4" d="M249.26,142.46l-13.1-13.1,12.1-7.26a1.48,1.48,0,0,1,1.81.22l6.23,6.22a1.48,1.48,0,0,1,.22,1.81Z"/><path class="cls-4" d="M155,142.46l13.1-13.1L156,122.1a1.48,1.48,0,0,0-1.81.22l-6.23,6.22a1.48,1.48,0,0,0-.22,1.81Z"/><path class="cls-4" d="M249.26,210.56l-13.1,13.1,12.1,7.27a1.48,1.48,0,0,0,1.81-.23l6.23-6.22a1.48,1.48,0,0,0,.22-1.81Z"/><path class="cls-4" d="M155,210.56l13.1,13.1L156,230.93a1.48,1.48,0,0,1-1.81-.23l-6.23-6.22a1.48,1.48,0,0,1-.22-1.81Z"/><polygon class="cls-9" points="202.11 189.61 215.2 176.51 219.13 193.54 202.11 189.61"/><polygon class="cls-9" points="225.68 213.18 238.78 200.09 242.71 217.11 225.68 213.18"/><polygon class="cls-9" points="215.2 176.51 202.11 163.41 219.13 159.49 215.2 176.51"/><polygon class="cls-9" points="238.78 152.94 225.68 139.84 242.71 135.91 238.78 152.94"/><polygon class="cls-9" points="189.01 176.51 202.11 189.61 185.08 193.54 189.01 176.51"/><polygon class="cls-9" points="165.43 200.09 178.53 213.18 161.5 217.11 165.43 200.09"/><polygon class="cls-9" points="202.11 163.41 189.01 176.51 185.08 159.49 202.11 163.41"/><polygon class="cls-9" points="178.53 139.84 165.43 152.94 161.5 135.91 178.53 139.84"/><path class="cls-10" d="M175.91,163.41a18.54,18.54,0,0,0,0,26.2l13.1-13.1Z"/><path class="cls-10" d="M215.2,150.32a18.5,18.5,0,0,0-26.19,0l13.1,13.09Z"/><path class="cls-10" d="M189,202.71a18.52,18.52,0,0,0,26.19,0l-13.09-13.1Z"/><path class="cls-10" d="M228.3,189.61a18.54,18.54,0,0,0,0-26.2l-13.1,13.1Z"/><path class="cls-10" d="M228.3,163.41a9.26,9.26,0,0,0-13.1-13.09h0Z"/><path class="cls-10" d="M175.91,189.61a9.26,9.26,0,1,0,13.1,13.1h0Z"/><path class="cls-10" d="M215.2,202.71a9.26,9.26,0,1,0,13.1-13.1h0Z"/><path class="cls-10" d="M175.91,163.41A9.26,9.26,0,0,1,189,150.32h0Z"/><path class="cls-2" d="M302.11,458.16V461L273.2,489.9a9.33,9.33,0,0,1-6.64,2.75H137.65A9.35,9.35,0,0,1,131,489.9L102.11,461v-2.82l30.32,30.31a7.31,7.31,0,0,0,5.22,2.17H266.56a7.31,7.31,0,0,0,5.22-2.17Z"/><path class="cls-2" d="M189.63,482v1H139.72a9.53,9.53,0,0,1-6.78-2.81l-30.83-30.83v-1.41l31.53,31.53a8.52,8.52,0,0,0,6.08,2.52Z"/><path class="cls-2" d="M302.11,447.92v1.42l-30.83,30.83A9.55,9.55,0,0,1,264.5,483H214.58v-1H264.5a8.5,8.5,0,0,0,6.07-2.52Z"/><path class="cls-11" d="M215.86,491.06H188.35l5.09-20.34a2.18,2.18,0,0,1,2.13-1.66h13.07a2.2,2.2,0,0,1,2.14,1.66Z"/></g></g></svg>