<svg xmlns="http://www.w3.org/2000/svg" xmlns:xlink="http://www.w3.org/1999/xlink" viewBox="0 0 355.53 500"><defs><style>.cls-1{fill:#fff;}.cls-2{fill:#fff5cc;}.cls-3{fill:#ecb14e;}.cls-4{fill:#c45620;}.cls-5{fill:#1e377e;}.cls-6{clip-path:url(#clip-path);}.cls-10,.cls-7,.cls-8{fill:none;stroke-miterlimit:10;}.cls-7{stroke:#f9d2ca;}.cls-7,.cls-8{stroke-width:0.8px;}.cls-8{stroke:#edc66e;}.cls-9{fill:#f5c1b3;}.cls-10{stroke:#fff5cc;stroke-width:2px;}</style><clipPath id="clip-path"><path class="cls-1" d="M80.52,236.61l83.3,33.25a40,40,0,0,0,29.84-.08l81.84-33.16a4,4,0,0,0,2.5-3.71V115.82a40,40,0,0,0-40-40H118a40,40,0,0,0-40,40V232.9A4,4,0,0,0,80.52,236.61Z"/></clipPath></defs><g id="Layer_2" data-name="Layer 2"><g id="Layer_1-2" data-name="Layer 1"><path class="cls-2" d="M179.06,333.1a17.9,17.9,0,0,1-6.67-1.28L13.33,268.35A17.92,17.92,0,0,1,2,251.63V139.41a17.9,17.9,0,0,1,8.3-15.16L168.07,23.38a18,18,0,0,1,19.39,0L345.23,124.25a17.9,17.9,0,0,1,8.3,15.16V251.7a17.93,17.93,0,0,1-11.24,16.69L185.82,331.78a17.85,17.85,0,0,1-6.76,1.32Z"/><path class="cls-3" d="M177.77,22.54a15.91,15.91,0,0,1,8.61,2.52L344.15,125.93a15.93,15.93,0,0,1,7.38,13.48V251.7a15.93,15.93,0,0,1-10,14.83l-156.47,63.4a16,16,0,0,1-11.94,0L14.07,266.49A15.92,15.92,0,0,1,4,251.63V139.41a15.93,15.93,0,0,1,7.38-13.48L169.15,25.06a16,16,0,0,1,8.62-2.52m0-4A20,20,0,0,0,167,21.69L9.23,122.56A20,20,0,0,0,0,139.41V251.63A20,20,0,0,0,12.59,270.2l159,63.48a20.07,20.07,0,0,0,14.93,0L343,270.24a20,20,0,0,0,12.49-18.54V139.41a20,20,0,0,0-9.22-16.85L188.54,21.69a20,20,0,0,0-10.77-3.15Z"/><path class="cls-2" d="M178.77,304.59a60,60,0,0,1-22.34-4.29L35.37,252a17.9,17.9,0,0,1-11.32-16.72v-173A60.35,60.35,0,0,1,84.33,2H271.2a60.36,60.36,0,0,1,60.29,60.29V235.35A17.93,17.93,0,0,1,320.25,252L201.41,300.18a60,60,0,0,1-22.64,4.41Z"/><path class="cls-3" d="M271.2,0V4a58.36,58.36,0,0,1,58.29,58.29V235.35a15.94,15.94,0,0,1-10,14.83L200.66,298.32a58.27,58.27,0,0,1-43.49.12l-121-48.31a15.91,15.91,0,0,1-10.07-14.86v-173A58.35,58.35,0,0,1,84.33,4H271.2V0m0,0H84.33A62.28,62.28,0,0,0,22.05,62.29v173a20,20,0,0,0,12.58,18.58l121.05,48.3a62.26,62.26,0,0,0,46.48-.12L321,253.89a20,20,0,0,0,12.49-18.54V62.29A62.29,62.29,0,0,0,271.2,0Z"/><path class="cls-3" d="M169,499,93.5,481.55A20,20,0,0,1,78,462.06V173.31H278V462.06a20,20,0,0,1-15.5,19.49L187,499A40.22,40.22,0,0,1,169,499Z"/><path class="cls-4" d="M164.5,288.28,78,256.51V118.43H278V256.51l-86.51,31.77A39.14,39.14,0,0,1,164.5,288.28Z"/><path class="cls-3" d="M72.52,241.52l90.17,36a43.23,43.23,0,0,0,32.23-.08l88.58-35.89a4,4,0,0,0,2.5-3.71V111.14a43.2,43.2,0,0,0-43.2-43.2H113.2A43.2,43.2,0,0,0,70,111.14V237.81A4,4,0,0,0,72.52,241.52Z"/><polygon class="cls-3" points="158.41 161.09 158.41 148.19 168.73 154.64 158.41 161.09"/><polygon class="cls-3" points="137.77 161.09 137.77 148.19 148.09 154.64 137.77 161.09"/><polygon class="cls-3" points="148.09 161.09 148.09 148.19 158.41 154.64 148.09 161.09"/><polygon class="cls-3" points="171.31 135.29 184.22 135.29 177.77 145.61 171.31 135.29"/><polygon class="cls-3" points="171.31 124.96 184.22 124.96 177.77 135.29 171.31 124.96"/><polygon class="cls-3" points="171.31 114.64 184.22 114.64 177.77 124.96 171.31 114.64"/><polygon class="cls-3" points="184.22 174 171.31 174 177.77 163.67 184.22 174"/><polygon class="cls-3" points="184.22 184.32 171.31 184.32 177.77 174 184.22 184.32"/><polygon class="cls-3" points="184.22 194.64 171.31 194.64 177.77 184.32 184.22 194.64"/><polygon class="cls-3" points="197.12 148.19 197.12 161.09 186.8 154.64 197.12 148.19"/><polygon class="cls-3" points="217.77 148.19 217.77 161.09 207.44 154.64 217.77 148.19"/><polygon class="cls-3" points="207.44 148.19 207.44 161.09 197.12 154.64 207.44 148.19"/><polygon class="cls-3" points="171.31 114.64 158.41 135.29 171.31 135.29 171.31 114.64"/><polygon class="cls-3" points="184.22 114.64 197.12 135.29 184.22 135.29 184.22 114.64"/><polygon class="cls-3" points="171.31 194.64 158.41 174 171.31 174 171.31 194.64"/><polygon class="cls-3" points="184.22 194.64 197.12 174 184.22 174 184.22 194.64"/><polygon class="cls-3" points="137.77 148.19 158.41 135.29 158.41 148.19 137.77 148.19"/><polygon class="cls-3" points="158.41 161.09 137.77 161.09 158.41 174 158.41 161.09"/><polygon class="cls-3" points="217.77 148.19 197.12 135.29 197.12 148.19 217.77 148.19"/><polygon class="cls-3" points="217.77 161.09 197.12 174 197.12 161.09 217.77 161.09"/><path class="cls-5" d="M184.06,154.85l-6.5-6.5,6-3.6a.73.73,0,0,1,.9.11l3.09,3.09a.72.72,0,0,1,.11.89Z"/><path class="cls-5" d="M177.56,161.35l6.5-6.5,3.6,6a.74.74,0,0,1-.11.9l-3.09,3.09a.74.74,0,0,1-.9.11Z"/><path class="cls-5" d="M171.05,154.85l6.51,6.5-6,3.61a.74.74,0,0,1-.9-.11l-3.09-3.09a.74.74,0,0,1-.11-.9Z"/><path class="cls-5" d="M177.56,148.35l-6.51,6.5-3.6-6a.72.72,0,0,1,.11-.89l3.09-3.09a.73.73,0,0,1,.9-.11Z"/><path class="cls-1" d="M80.52,236.61l83.3,33.25a40,40,0,0,0,29.84-.08l81.84-33.16a4,4,0,0,0,2.5-3.71V115.82a40,40,0,0,0-40-40H118a40,40,0,0,0-40,40V232.9A4,4,0,0,0,80.52,236.61Z"/><g class="cls-6"><path class="cls-7" d="M187.59,101a59.8,59.8,0,0,1,59.82,59.82"/><path class="cls-7" d="M248,180.43a60,60,0,0,1-60,60"/><path class="cls-7" d="M109,180.08a59.62,59.62,0,0,0,59.65,59.65"/><path class="cls-7" d="M109.08,161.16a59.67,59.67,0,0,1,59.64-59.65"/><line class="cls-8" x1="206.2" y1="269.71" x2="161.71" y2="198.53"/><line class="cls-8" x1="194" y1="198.99" x2="149.8" y2="269.71"/><line class="cls-8" x1="206.82" y1="70.44" x2="160.89" y2="143.93"/><line class="cls-8" x1="190.47" y1="136.51" x2="178" y2="116.56"/><line class="cls-8" x1="195.03" y1="143.81" x2="149.18" y2="70.44"/><line class="cls-8" x1="73.79" y1="201.95" x2="151.23" y2="153.55"/><line class="cls-8" x1="151.61" y1="187.84" x2="74.03" y2="139.35"/><line class="cls-8" x1="283.49" y1="202.75" x2="202.1" y2="151.88"/><line class="cls-8" x1="204.24" y1="187.93" x2="283.49" y2="138.41"/></g><path class="cls-9" d="M149.78,142.36a20,20,0,0,0,0,28.22L178,142.36A20,20,0,0,0,149.78,142.36Z"/><path class="cls-9" d="M178,142.36l28.22,28.22A20,20,0,0,0,178,142.36Z"/><path class="cls-9" d="M206.22,198.8a20,20,0,0,0,0-28.22L178,198.8A20,20,0,0,0,206.22,198.8Z"/><path class="cls-9" d="M149.78,170.58A20,20,0,0,0,178,198.8Z"/><polygon class="cls-3" points="172.71 193.5 155.07 175.87 178 170.58 172.71 193.5"/><polygon class="cls-3" points="155.07 165.29 172.71 147.65 178 170.58 155.07 165.29"/><polygon class="cls-3" points="200.93 175.87 183.29 193.5 178 170.58 200.93 175.87"/><polygon class="cls-3" points="183.29 147.65 200.93 165.29 178 170.58 183.29 147.65"/><polygon class="cls-3" points="165.53 204.64 190.47 204.64 178 224.59 165.53 204.64"/><polygon class="cls-3" points="165.53 136.51 190.47 136.51 178 116.56 165.53 136.51"/><polygon class="cls-3" points="143.94 158.11 143.94 183.05 123.98 170.58 143.94 158.11"/><polygon class="cls-3" points="212.06 158.11 212.06 183.05 232.02 170.58 212.06 158.11"/><path class="cls-4" d="M132.84,50.09l1.77-25.2h6.19l-1.08,25.2Zm11.38-3.67-4.61-16,.11-5.51h3.56L146.74,38,148,46.42Zm1.62,0L147.28,38l3.31-13.12h3.57l.1,5.51-4.57,16Zm8.32,3.67-1.08-25.2h6.19L161,50.09Z"/><path class="cls-4" d="M172.8,50.09V45.23h5V29.75h-5V24.89h16.71v4.86h-5V45.23h5v4.86Z"/><path class="cls-4" d="M202,50.09V24.89h8.53a20.64,20.64,0,0,1,2.7.18,12.76,12.76,0,0,1,2.66.65,8.32,8.32,0,0,1,2.41,1.35,8.45,8.45,0,0,1,2,2.27,11.48,11.48,0,0,1,1.34,3.39,21.28,21.28,0,0,1,.47,4.76,21.31,21.31,0,0,1-.47,4.75,11.44,11.44,0,0,1-1.34,3.4,8.39,8.39,0,0,1-4.38,3.62,12.16,12.16,0,0,1-2.66.65,20.64,20.64,0,0,1-2.7.18Zm6.73-4.86h1.26a5.81,5.81,0,0,0,2.31-.42,3.81,3.81,0,0,0,1.62-1.34,6.37,6.37,0,0,0,.94-2.4,17.46,17.46,0,0,0,.31-3.58,17.46,17.46,0,0,0-.31-3.58,6.37,6.37,0,0,0-.94-2.4,3.88,3.88,0,0,0-1.62-1.34,5.81,5.81,0,0,0-2.31-.42h-1.26Z"/><polygon class="cls-3" points="300.5 156.81 321.47 156.81 310.99 140.04 300.5 156.81"/><polygon class="cls-3" points="58.34 156.81 37.37 156.81 47.86 140.04 58.34 156.81"/><path class="cls-2" d="M78,459.29a21,21,0,0,0,13.27,9.63l77.51,18.43a41.43,41.43,0,0,0,18.45,0l77.49-18.43A21,21,0,0,0,278,459.29v-4.74A18.89,18.89,0,0,1,264.27,467l-77.5,18.43a39.34,39.34,0,0,1-17.54,0L91.73,467A18.89,18.89,0,0,1,78,454.55Z"/><path class="cls-10" d="M192.24,484.75,178,462l-14.24,22.78"/></g></g></svg>