<svg width="592" height="794" viewBox="0 0 592 794" fill="none" xmlns="http://www.w3.org/2000/svg">
<g filter="url(#filter0_d_6854_131444)">
<path d="M56.8291 15.7627C56.0259 11.4937 52.5464 8 48.2025 8H40C26.7452 8 16 18.7452 16 32V746C16 759.255 26.7452 770 40 770H552C565.255 770 576 759.255 576 746V32C576 18.7452 565.255 8 552 8H159.798C155.454 8 151.974 11.4936 151.171 15.7627C146.986 38.0054 127.458 54.8332 104 54.8332C80.5417 54.8332 61.0138 38.0054 56.8291 15.7627Z" fill="#F5F6F7"/>
<path d="M48.2025 8.5C52.2586 8.5 55.5696 11.7726 56.3377 15.8551C60.566 38.3298 80.2968 55.3332 104 55.3332C127.703 55.3332 147.434 38.3298 151.662 15.8551C152.43 11.7726 155.741 8.5 159.798 8.5H552C564.979 8.5 575.5 19.0213 575.5 32V746C575.5 758.979 564.979 769.5 552 769.5H40C27.0213 769.5 16.5 758.979 16.5 746V32C16.5 19.0213 27.0213 8.5 40 8.5H48.2025Z" stroke="#ECEEF0"/>
</g>
<defs>
<filter id="filter0_d_6854_131444" x="0" y="0" width="592" height="794" filterUnits="userSpaceOnUse" color-interpolation-filters="sRGB">
<feFlood flood-opacity="0" result="BackgroundImageFix"/>
<feColorMatrix in="SourceAlpha" type="matrix" values="0 0 0 0 0 0 0 0 0 0 0 0 0 0 0 0 0 0 127 0" result="hardAlpha"/>
<feOffset dy="8"/>
<feGaussianBlur stdDeviation="8"/>
<feComposite in2="hardAlpha" operator="out"/>
<feColorMatrix type="matrix" values="0 0 0 0 0 0 0 0 0 0 0 0 0 0 0 0 0 0 0.04 0"/>
<feBlend mode="normal" in2="BackgroundImageFix" result="effect1_dropShadow_6854_131444"/>
<feBlend mode="normal" in="SourceGraphic" in2="effect1_dropShadow_6854_131444" result="shape"/>
</filter>
</defs>
</svg>
