<svg width="87" height="26" viewBox="0 0 87 26" fill="none" xmlns="http://www.w3.org/2000/svg">
<path d="M0 21.28C0 11.7365 7.73652 4 17.28 4H86.28C86.6776 4 87 4.32236 87 4.72C87 14.2635 79.2635 22 69.72 22H0.72C0.322355 22 0 21.6776 0 21.28Z" fill="url(#paint0_linear_8591_22977)"/>
<path d="M15.26 17.1C14.76 17.1 14.3367 17.0433 13.99 16.93C13.6433 16.81 13.36 16.66 13.14 16.48C12.9267 16.2933 12.76 16.1 12.64 15.9C12.52 15.6933 12.4333 15.5 12.38 15.32C12.3333 15.1333 12.3033 14.9833 12.29 14.87C12.2833 14.75 12.28 14.69 12.28 14.69H13.81C13.81 14.69 13.82 14.7467 13.84 14.86C13.86 14.9733 13.9167 15.1067 14.01 15.26C14.1033 15.4133 14.25 15.55 14.45 15.67C14.6567 15.7833 14.9433 15.84 15.31 15.84C15.7033 15.84 16.0267 15.75 16.28 15.57C16.5333 15.39 16.66 15.1567 16.66 14.87C16.66 14.6567 16.5833 14.4833 16.43 14.35C16.2767 14.2167 16.07 14.1033 15.81 14.01L14.99 13.73C14.6633 13.6233 14.3667 13.4867 14.1 13.32C13.84 13.1467 13.6333 12.93 13.48 12.67C13.3267 12.41 13.25 12.1 13.25 11.74C13.25 11.3467 13.3567 10.98 13.57 10.64C13.7833 10.3 14.0967 10.0267 14.51 9.82C14.93 9.60667 15.4433 9.5 16.05 9.5C16.5033 9.5 16.8867 9.55333 17.2 9.66C17.5133 9.76667 17.7733 9.90667 17.98 10.08C18.1867 10.2467 18.3467 10.4267 18.46 10.62C18.58 10.8067 18.6667 10.9867 18.72 11.16C18.7733 11.3267 18.8067 11.4633 18.82 11.57C18.8333 11.6767 18.84 11.73 18.84 11.73H17.35C17.35 11.73 17.3367 11.68 17.31 11.58C17.29 11.48 17.2367 11.3633 17.15 11.23C17.07 11.0967 16.9433 10.98 16.77 10.88C16.5967 10.78 16.3567 10.73 16.05 10.73C15.65 10.73 15.3367 10.82 15.11 11C14.89 11.18 14.78 11.3967 14.78 11.65C14.78 11.8633 14.85 12.04 14.99 12.18C15.1367 12.3133 15.3333 12.42 15.58 12.5L16.34 12.76C16.88 12.94 17.3233 13.19 17.67 13.51C18.0233 13.83 18.2 14.2633 18.2 14.81C18.2 15.2233 18.0833 15.6033 17.85 15.95C17.6167 16.2967 17.28 16.5767 16.84 16.79C16.4 16.9967 15.8733 17.1 15.26 17.1ZM24.5997 7.05L23.4897 7.04L24.3197 5.24H25.7197L24.5997 7.05ZM23.7197 8.93C23.3664 8.93 23.0797 8.87667 22.8597 8.77C22.6464 8.66333 22.483 8.53333 22.3697 8.38C22.263 8.22667 22.1897 8.07333 22.1497 7.92C22.1097 7.76 22.0864 7.62667 22.0797 7.52C22.0797 7.41333 22.0797 7.36 22.0797 7.36H23.0797C23.0797 7.36 23.0764 7.39667 23.0697 7.47C23.0697 7.54333 23.083 7.62667 23.1097 7.72C23.143 7.80667 23.2064 7.88667 23.2997 7.96C23.3997 8.02667 23.543 8.06 23.7297 8.06C23.9297 8.06 24.0897 8.02667 24.2097 7.96C24.3364 7.88667 24.433 7.80667 24.4997 7.72C24.573 7.62667 24.623 7.54333 24.6497 7.47C24.6764 7.39667 24.6897 7.36 24.6897 7.36H25.6897C25.6897 7.36 25.6764 7.41333 25.6497 7.52C25.6297 7.62667 25.583 7.76 25.5097 7.92C25.4364 8.07333 25.3264 8.22667 25.1797 8.38C25.0397 8.53333 24.8497 8.66333 24.6097 8.77C24.3764 8.87667 24.0797 8.93 23.7197 8.93ZM18.3197 17L22.4097 9.6H24.4297L25.3797 17H23.8597L23.6797 15.55H20.7997L20.0097 17H18.3197ZM21.5197 14.21H23.5397L23.1797 11.14L21.5197 14.21ZM26.2511 17L27.8211 9.6H30.5211C31.0944 9.6 31.5678 9.70667 31.9411 9.92C32.3144 10.1333 32.5911 10.41 32.7711 10.75C32.9578 11.09 33.0511 11.45 33.0511 11.83C33.0511 12.1567 32.9844 12.48 32.8511 12.8C32.7244 13.12 32.5344 13.4133 32.2811 13.68C32.0278 13.94 31.7144 14.15 31.3411 14.31C30.9744 14.4633 30.5511 14.54 30.0711 14.54H28.3111L27.7911 17H26.2511ZM30.3611 10.95H29.0811L28.6011 13.2H30.1511C30.4378 13.2 30.6811 13.14 30.8811 13.02C31.0811 12.8933 31.2311 12.7333 31.3311 12.54C31.4378 12.3467 31.4911 12.1533 31.4911 11.96C31.4911 11.6933 31.3978 11.46 31.2111 11.26C31.0311 11.0533 30.7478 10.95 30.3611 10.95ZM35.3722 17L36.9422 9.6H39.5922C40.1589 9.6 40.6255 9.7 40.9922 9.9C41.3655 10.1 41.6422 10.36 41.8222 10.68C42.0089 11 42.1022 11.34 42.1022 11.7C42.1022 12.0267 42.0255 12.35 41.8722 12.67C41.7255 12.99 41.5055 13.2733 41.2122 13.52C40.9255 13.76 40.5689 13.9333 40.1422 14.04L41.1222 17H39.5422L38.6222 14.15H37.5222L36.9122 17H35.3722ZM39.5422 10.93H38.2022L37.7822 12.89H39.3322C39.5989 12.89 39.8222 12.8367 40.0022 12.73C40.1889 12.6233 40.3289 12.4867 40.4222 12.32C40.5155 12.1533 40.5622 11.9833 40.5622 11.81C40.5622 11.5833 40.4789 11.38 40.3122 11.2C40.1455 11.02 39.8889 10.93 39.5422 10.93ZM41.8551 17L45.9451 9.6H47.9651L48.9151 17H47.3951L47.2151 15.55H44.3351L43.5551 17H41.8551ZM45.0551 14.21H47.0751L46.7151 11.14L45.0551 14.21ZM52.1105 17L53.6805 9.6H55.6905L56.5805 13.41L59.1305 9.6H61.2005L59.6305 17H58.0905L59.1405 12.06L56.9805 15.27H55.5405L54.7305 11.95L53.6505 17H52.1105ZM66.8067 7.05L65.6967 7.04L66.5267 5.24H67.9267L66.8067 7.05ZM65.9267 8.93C65.5734 8.93 65.2867 8.87667 65.0667 8.77C64.8534 8.66333 64.6901 8.53333 64.5767 8.38C64.4701 8.22667 64.3967 8.07333 64.3567 7.92C64.3167 7.76 64.2934 7.62667 64.2867 7.52C64.2867 7.41333 64.2867 7.36 64.2867 7.36H65.2867C65.2867 7.36 65.2834 7.39667 65.2767 7.47C65.2767 7.54333 65.2901 7.62667 65.3167 7.72C65.3501 7.80667 65.4134 7.88667 65.5067 7.96C65.6067 8.02667 65.7501 8.06 65.9367 8.06C66.1367 8.06 66.2967 8.02667 66.4167 7.96C66.5434 7.88667 66.6401 7.80667 66.7067 7.72C66.7801 7.62667 66.8301 7.54333 66.8567 7.47C66.8834 7.39667 66.8967 7.36 66.8967 7.36H67.8967C67.8967 7.36 67.8834 7.41333 67.8567 7.52C67.8367 7.62667 67.7901 7.76 67.7167 7.92C67.6434 8.07333 67.5334 8.22667 67.3867 8.38C67.2467 8.53333 67.0567 8.66333 66.8167 8.77C66.5834 8.87667 66.2867 8.93 65.9267 8.93ZM60.5267 17L64.6167 9.6H66.6367L67.5867 17H66.0667L65.8867 15.55H63.0067L62.2167 17H60.5267ZM63.7267 14.21H65.7467L65.3867 11.14L63.7267 14.21ZM69.3816 17L70.6716 10.94H68.3616L68.6416 9.6H74.8016L74.5216 10.94H72.2116L70.9316 17H69.3816Z" fill="white"/>
<defs>
<linearGradient id="paint0_linear_8591_22977" x1="43.5" y1="4" x2="43.5" y2="22" gradientUnits="userSpaceOnUse">
<stop stop-color="#FFCF24"/>
<stop offset="1" stop-color="#FFB524"/>
</linearGradient>
</defs>
</svg>
