<svg width="48" height="26" viewBox="0 0 48 26" fill="none" xmlns="http://www.w3.org/2000/svg">
<path d="M0 24.04C0 11.3154 10.3154 1 23.04 1H47.04C47.5702 1 48 1.42981 48 1.96C48 14.6846 37.6846 25 24.96 25H0.959999C0.429806 25 0 24.5702 0 24.04Z" fill="url(#paint0_linear_8148_26057)"/>
<path d="M12.156 17L14.04 8.12H16.452L17.52 12.692L20.58 8.12H23.064L21.18 17H19.332L20.592 11.072L18 14.924H16.272L15.3 10.94L14.004 17H12.156ZM29.4075 7.244L28.0755 7.232L29.0835 5.072H30.7635L29.4075 7.244ZM27.2955 17.12C26.6315 17.12 26.0515 17.012 25.5555 16.796C25.0595 16.58 24.6515 16.284 24.3315 15.908C24.0115 15.532 23.7715 15.108 23.6115 14.636C23.4515 14.156 23.3715 13.656 23.3715 13.136C23.3715 12.52 23.4795 11.912 23.6955 11.312C23.9115 10.704 24.2275 10.152 24.6435 9.656C25.0595 9.152 25.5715 8.752 26.1795 8.456C26.7955 8.152 27.4955 8 28.2795 8C28.3195 8 28.3555 8 28.3875 8H30.5235C30.8595 8 31.0635 7.84 31.1355 7.52L31.3155 6.668H32.8755L32.6235 7.808C32.5435 8.192 32.3835 8.488 32.1435 8.696C31.9115 8.904 31.5755 9.008 31.1355 9.008H31.0515C31.4355 9.384 31.7235 9.832 31.9155 10.352C32.1075 10.872 32.2035 11.416 32.2035 11.984C32.2035 12.6 32.0955 13.212 31.8795 13.82C31.6635 14.42 31.3475 14.972 30.9315 15.476C30.5155 15.972 30.0035 16.372 29.3955 16.676C28.7875 16.972 28.0875 17.12 27.2955 17.12ZM27.3675 15.464C27.8395 15.464 28.2595 15.364 28.6275 15.164C28.9955 14.956 29.3035 14.684 29.5515 14.348C29.8075 14.012 29.9995 13.64 30.1275 13.232C30.2635 12.824 30.3315 12.42 30.3315 12.02C30.3315 11.604 30.2555 11.216 30.1035 10.856C29.9515 10.496 29.7195 10.208 29.4075 9.992C29.0955 9.768 28.6995 9.656 28.2195 9.656C27.7475 9.656 27.3275 9.76 26.9595 9.968C26.5995 10.168 26.2915 10.436 26.0355 10.772C25.7795 11.108 25.5835 11.48 25.4475 11.888C25.3195 12.296 25.2555 12.7 25.2555 13.1C25.2555 13.516 25.3315 13.904 25.4835 14.264C25.6355 14.624 25.8675 14.916 26.1795 15.14C26.4915 15.356 26.8875 15.464 27.3675 15.464ZM32.5583 17L34.4423 8.12H36.2903L34.4063 17H32.5583Z" fill="white"/>
<defs>
<linearGradient id="paint0_linear_8148_26057" x1="24" y1="1" x2="24" y2="25" gradientUnits="userSpaceOnUse">
<stop stop-color="#FFCF24"/>
<stop offset="1" stop-color="#FFB524"/>
</linearGradient>
</defs>
</svg>
