<svg xmlns="http://www.w3.org/2000/svg" xmlns:xlink="http://www.w3.org/1999/xlink" viewBox="0 80 7026.66 5625.34"><defs><style>.cls-1{fill:#271e3a;}.cls-10,.cls-12,.cls-13,.cls-2,.cls-3,.cls-35,.cls-39,.cls-45,.cls-47,.cls-5,.cls-6,.cls-7,.cls-8,.cls-9{fill:none;}.cls-10,.cls-12,.cls-13,.cls-2,.cls-3,.cls-5,.cls-6,.cls-7,.cls-8,.cls-9{stroke:#221a34;}.cls-10,.cls-12,.cls-13,.cls-2,.cls-3,.cls-34,.cls-35,.cls-37,.cls-39,.cls-45,.cls-5,.cls-6,.cls-7,.cls-8,.cls-9{stroke-miterlimit:10;}.cls-2{stroke-width:9.98px;}.cls-3{stroke-width:12.97px;}.cls-4{fill:#221a34;}.cls-5{stroke-width:14.97px;}.cls-35,.cls-6{stroke-width:7.98px;}.cls-7{stroke-width:6.99px;}.cls-8{stroke-width:13.97px;}.cls-9{stroke-width:5.99px;}.cls-10{stroke-width:8.98px;}.cls-11{fill:#201832;}.cls-12{stroke-width:5.55px;}.cls-13{stroke-width:3.99px;}.cls-14{fill:url(#linear-gradient);}.cls-15{fill:url(#linear-gradient-2);}.cls-16{fill:url(#linear-gradient-3);}.cls-17{fill:url(#linear-gradient-4);}.cls-18{fill:#35294a;}.cls-19{fill:url(#linear-gradient-5);}.cls-20{fill:url(#linear-gradient-6);}.cls-21{fill:url(#linear-gradient-7);}.cls-22{fill:url(#linear-gradient-8);}.cls-23{fill:url(#linear-gradient-9);}.cls-24{fill:url(#linear-gradient-10);}.cls-25{fill:url(#linear-gradient-11);}.cls-26{fill:url(#linear-gradient-12);}.cls-27{fill:url(#linear-gradient-13);}.cls-28{fill:#716f91;}.cls-29{fill:url(#linear-gradient-14);}.cls-30{fill:#514c6e;}.cls-31{fill:#a3a1bf;}.cls-32{fill:#8e8eac;}.cls-33{fill:url(#linear-gradient-15);}.cls-34,.cls-37{fill:#e2e1d7;stroke:#d3cdbe;}.cls-34{stroke-width:1.92px;}.cls-35{stroke:#514c6e;}.cls-36{fill:#504b6f;}.cls-37{stroke-width:2.09px;}.cls-38{fill:#2c2441;}.cls-39{stroke:#504b6f;stroke-width:2px;}.cls-40{fill:url(#linear-gradient-16);}.cls-41{fill:#373151;}.cls-42,.cls-46{fill:#433e60;}.cls-43{fill:#2e2543;}.cls-44{fill:url(#linear-gradient-17);}.cls-45{stroke:#373151;stroke-width:2.99px;}.cls-46{stroke:#8e8eac;stroke-linecap:round;stroke-linejoin:round;stroke-width:4.76px;}.cls-48{fill:url(#linear-gradient-18);}.cls-49{fill:url(#linear-gradient-19);}</style><linearGradient id="linear-gradient" x1="5341.16" y1="3666.19" x2="5307.48" y2="3666.19" gradientUnits="userSpaceOnUse"><stop offset="0" stop-color="#221933"/><stop offset="1" stop-color="#221933" stop-opacity="0.4"/></linearGradient><linearGradient id="linear-gradient-2" x1="4854.84" y1="1006.63" x2="4778.73" y2="1006.63" xlink:href="#linear-gradient"/><linearGradient id="linear-gradient-3" x1="5773.27" y1="2243.72" x2="5737.24" y2="2243.72" xlink:href="#linear-gradient"/><linearGradient id="linear-gradient-4" x1="5123.52" y1="2390.83" x2="5558.59" y2="2683.67" gradientUnits="userSpaceOnUse"><stop offset="0" stop-color="#221933" stop-opacity="0.4"/><stop offset="0.54" stop-color="#221933"/><stop offset="1" stop-color="#221933" stop-opacity="0.8"/></linearGradient><linearGradient id="linear-gradient-5" x1="5660.36" y1="2044.02" x2="5748.15" y2="2092.14" gradientUnits="userSpaceOnUse"><stop offset="0" stop-color="#271e3a" stop-opacity="0.99"/><stop offset="1" stop-color="#271e3a" stop-opacity="0.2"/></linearGradient><linearGradient id="linear-gradient-6" x1="4769.63" y1="4611.31" x2="4769.63" y2="4423.34" xlink:href="#linear-gradient"/><linearGradient id="linear-gradient-7" x1="5118.87" y1="4465.38" x2="5313.95" y2="4278.1" xlink:href="#linear-gradient-4"/><linearGradient id="linear-gradient-8" x1="1271.75" y1="2270.02" x2="1348.29" y2="2270.02" xlink:href="#linear-gradient"/><linearGradient id="linear-gradient-9" x1="2378.85" y1="913.64" x2="2920.97" y2="1257.6" xlink:href="#linear-gradient"/><linearGradient id="linear-gradient-10" x1="1971.53" y1="1401.11" x2="2042.52" y2="1478.84" xlink:href="#linear-gradient"/><linearGradient id="linear-gradient-11" x1="1298.37" y1="3653.76" x2="1340.07" y2="3653.76" xlink:href="#linear-gradient"/><linearGradient id="linear-gradient-12" x1="2286.84" y1="4379.46" x2="2336.56" y2="4302.97" xlink:href="#linear-gradient"/><linearGradient id="linear-gradient-13" x1="1649.73" y1="3899.02" x2="1824.4" y2="3781.22" xlink:href="#linear-gradient"/><linearGradient id="linear-gradient-14" x1="1815.08" y1="1238.47" x2="2041.38" y2="1466.71" gradientUnits="userSpaceOnUse"><stop offset="0" stop-color="#49466a"/><stop offset="0.28" stop-color="#4d496d"/><stop offset="1" stop-color="#504b6f"/></linearGradient><linearGradient id="linear-gradient-15" x1="1264.55" y1="3811.43" x2="1235.74" y2="3925.46" xlink:href="#linear-gradient-5"/><linearGradient id="linear-gradient-16" x1="1272.48" y1="3740.08" x2="1426.59" y2="3716.67" gradientUnits="userSpaceOnUse"><stop offset="0" stop-color="#271e3a" stop-opacity="0.99"/><stop offset="1" stop-color="#271e3a" stop-opacity="0.4"/></linearGradient><linearGradient id="linear-gradient-17" x1="5071.05" y1="2414.8" x2="5102.26" y2="2389.44" gradientUnits="userSpaceOnUse"><stop offset="0" stop-color="#373151"/><stop offset="1" stop-color="#373151" stop-opacity="0"/></linearGradient><linearGradient id="linear-gradient-18" x1="3080.28" y1="2554.71" x2="3278.42" y2="2733.03" gradientTransform="matrix(0.28, -0.82, 0.28, 0.82, 535.73, 2138.26)" xlink:href="#linear-gradient-14"/><linearGradient id="linear-gradient-19" x1="1612.95" y1="1064.14" x2="1665.78" y2="1118.34" gradientTransform="matrix(0.54, -0.78, 0.54, 0.78, 650.89, 1994.53)" gradientUnits="userSpaceOnUse"><stop offset="0.04" stop-color="#35294a"/><stop offset="1" stop-color="#35294a" stop-opacity="0"/></linearGradient></defs><g id="Layer_2" data-name="Layer 2"><g id="BG_Illustration" data-name="BG Illustration"><g id="cnpm-full"><rect class="cls-1" x="212.18" y="81.03" width="6524.15" height="5344.83"/><polyline class="cls-2" points="1630.18 3507.29 1550.23 3587.23 1550.23 4458.88"/><polyline class="cls-2" points="1550.23 3778.28 1786.79 4014.84 1786.79 4526.61"/><line class="cls-3" x1="1458.33" y1="3505.64" x2="1458.33" y2="3588.88"/><line class="cls-3" x1="1458.33" y1="3718.9" x2="1458.33" y2="4306.63"/><line class="cls-3" x1="1458.33" y1="3296.98" x2="1458.33" y2="3380.21"/><line class="cls-3" x1="1458.33" y1="3037.71" x2="1458.33" y2="3187.78"/><polyline class="cls-3" points="1616.87 3196.26 1409.49 2988.88 1409.49 2669.83 1433.55 2645.77 1479.53 2645.77 1497.08 2628.21 1497.08 1833.47"/><polyline class="cls-3" points="4055.05 4469.53 4623.25 4469.53 5005.61 4258.49"/><line class="cls-3" x1="5046.58" y1="4198.36" x2="5046.58" y2="4011.08"/><circle class="cls-4" cx="5039.65" cy="4242.58" r="22.42"/><polyline class="cls-5" points="2683.42 4364.01 3014.05 4694.63 3014.05 5213.19"/><line class="cls-6" x1="5450.51" y1="3778.28" x2="5450.51" y2="4158.04"/><polyline class="cls-6" points="5523.89 4195.76 5523.89 3895.33 5448.83 3820.28"/><polyline class="cls-7" points="5384.73 3009.55 5384.73 2319.05 5651.34 2052.44"/><line class="cls-8" x1="5574.72" y1="2811.97" x2="5574.72" y2="2064.15"/><polyline class="cls-9" points="5518.56 3029.76 5518.56 2396.78 5574.72 2340.62"/><line class="cls-3" x1="5490.92" y1="2715.75" x2="5429.76" y2="2776.91"/><line class="cls-3" x1="5490.92" y1="2658.77" x2="5429.76" y2="2719.93"/><line class="cls-3" x1="5490.92" y1="2601.79" x2="5429.76" y2="2662.95"/><line class="cls-3" x1="1556.41" y1="3135.79" x2="1556.41" y2="1885.59"/><line class="cls-3" x1="2454.78" y1="1297.98" x2="2758.66" y2="1297.98"/><line class="cls-3" x1="2454.78" y1="1200.06" x2="2758.66" y2="1200.06"/><polyline class="cls-3" points="2309.59 1395.9 2553.57 1395.9 2650.22 1299.25"/><line class="cls-3" x1="2720.25" y1="1297.98" x2="2465.5" y2="1552.73"/><polyline class="cls-10" points="4083.47 1176.17 4643.41 1176.17 4931.85 887.73"/><line class="cls-3" x1="5002.36" y1="927.46" x2="4401.51" y2="1528.32"/><polyline class="cls-6" points="4657.04 1272.78 5040.62 1272.78 5040.62 1650.57 5476.42 2086.37"/><circle class="cls-11" cx="1458.33" cy="3247.11" r="24.65"/><polygon class="cls-11" points="1489.14 3454.73 1427.52 3454.73 1458.33 3405.43 1489.14 3454.73"/><path class="cls-11" d="M1493.84,3678.54H1432.2l11.4-45.57a4.93,4.93,0,0,1,4.78-3.73h29.28a4.93,4.93,0,0,1,4.78,3.73Z"/><polyline class="cls-6" points="1786.79 4193.94 2046.19 4193.94 2501.98 4649.72"/><line class="cls-9" x1="2094.97" y1="4649.72" x2="2969.13" y2="4649.72"/><polygon class="cls-11" points="3145.09 4840.71 3083.46 4840.71 3114.28 4791.41 3145.09 4840.71"/><polygon class="cls-11" points="2925.93 4840.71 2864.3 4840.71 2895.12 4791.41 2925.93 4840.71"/><polygon class="cls-11" points="2706.78 4840.71 2645.15 4840.71 2675.96 4791.41 2706.78 4840.71"/><line class="cls-9" x1="1556.41" y1="2201.69" x2="2117.83" y2="1640.27"/><polyline class="cls-9" points="1706.8 2051.3 1942.76 2051.3 2009.51 1984.55 2037.27 1984.63 2110.89 2058.25"/><polyline class="cls-6" points="4764.17 4391.75 4986.7 4391.75 5219.19 4624.23"/><polyline class="cls-6" points="4840.45 4350.16 4994.56 4350.16 5387.33 4098.22"/><line class="cls-3" x1="1639.48" y1="2372" x2="1687.2" y2="2324.28"/><line class="cls-3" x1="1639.48" y1="2324.28" x2="1687.2" y2="2276.56"/><line class="cls-7" x1="4535.94" y1="1083.05" x2="4489.97" y2="1129.02"/><line class="cls-7" x1="4572.12" y1="1083.05" x2="4526.15" y2="1129.02"/><line class="cls-7" x1="4608.31" y1="1083.05" x2="4562.34" y2="1129.02"/><line class="cls-7" x1="4644.49" y1="1083.05" x2="4598.52" y2="1129.02"/><circle class="cls-7" cx="3795.72" cy="1176.17" r="287.75"/><circle class="cls-12" cx="3795.72" cy="1176.17" r="228.47"/><circle class="cls-4" cx="4024.19" cy="1176.17" r="15.76"/><circle class="cls-6" cx="2545.05" cy="4539.7" r="43.08"/><circle class="cls-4" cx="2545.05" cy="4539.7" r="14.88"/><line class="cls-13" x1="2614.86" y1="4521.5" x2="2736.98" y2="4521.5"/><line class="cls-13" x1="2614.86" y1="4543.99" x2="2736.98" y2="4543.99"/><line class="cls-13" x1="2614.86" y1="4566.49" x2="2736.98" y2="4566.49"/><circle class="cls-6" cx="5562.9" cy="3579.45" r="227.6"/><path class="cls-11" d="M1688,2177.16v61.63l-45.57-11.39a4.93,4.93,0,0,1-3.73-4.79v-29.28a4.93,4.93,0,0,1,3.73-4.78Z"/><path class="cls-11" d="M1631.32,2450v525c0,20.32-6.51,25.95-13.44,33.32s-23.63,28.61-28.83,35.77-8.46,16.25-8.46,29.26v526.73c0,32.51-1.3,48.67,13,76.35s185.23,233.18,199.26,250.09,9.32,37.71,9.32,52,21.62,35.11,28.12,48.12,6.5,42.92,6.5,62.43,10.41,31.21,31.22,31.21h109.6c21.75,0,27,19,53,19h61.12c14.31,0,36.42,8.29,50.08,25.85s236,221.94,236,221.94,37.14,38.8,103.47,38.8H2798c34.35,0,53.86-1.28,98.73,43.59l371.18,371.18h436.47s465.6-411.59,483.8-430.08,34.8-36.19,82.43-36.19h286.93c20.81,0,47.46,1.24,101.77-38.65s647.35-467.19,660.36-478.53,15.61-24.35,15.61-53-54.63-70.23-54.63-109.24V3288.57c0-51.32-2.22-59.12,11.9-77.33s26-52,26-85.84,6.69-62.43-13-83.23-40.13-28.62-40.13-96.25V2019.24c0-25.32-14.24-50.07-44.38-78.66s-482.73-528-488.58-533.87-6.83-28.61-6.83-42.1-27.31-49.59-27.31-49.59h-39s-18.53,39.67-18.53,49.59v22.6H4453.53c-15.61,0-22.44-22.6-22.44-22.6h-30.95s-40.25-59.34-51-70.07-28.29-11.7-37.07,5.85H4123.84c-33.17,0-46.82-24.3-90.72-13.61s-35.11,13.61-98.51,13.61h-134.4l-338.42-477H2714.18v368.71c0,7.8-18.07,33.81-24.06,55s-7.95,38.69-7.95,60.15v81.94c0,15.6-107.3,120.95-199,206.78S1771.65,2370.43,1749,2388s-102.69,30.82-114.39,36.87S1631.32,2450,1631.32,2450Z"/><path class="cls-14" d="M5318.17,2974.36c-22.44,27.32-24.39,33.17-24.39,52.68V3210.1c0,22.15-62.95,80.93-62.95,116.24v219.47c0,23.26,193.24,41.11,193.24,57.61s8.84,37.38,16.15,44.81,57.72,46.94,57.72,74.43v723.46l186.31,119.39H6088V2766.87H5496.3C5429,2845.07,5332.71,2956.66,5318.17,2974.36Z"/><path class="cls-15" d="M6088,565.9,5363.9,81.25l-591-.22.71,1344.33c0,57.85,71.43,159.86,93.54,167.66s65.43,6.35,96.56,7.8c6,.28,17.4,7.76,32.07,19.85,27.62,22.74,60,61.8,96.69,99.89,20.35,21.14,116.83,133.87,132.65,159.23,15.94,25.56,35.85,47.52,51.7,48.77,74.13,5.86,797.89,2.93,797.89,2.93Z"/><path class="cls-16" d="M5613.27,1918.48v163.87c0,16.91-6.51,28.62-15.61,28.62s-30.24,9.1-30.24,40.12v489.53c0,24.38,0,41.94-4.88,48.77-1.71,2.4-29.7,35-66.24,77.48H6088V1720.56S5613.27,1906.78,5613.27,1918.48Z"/><polygon class="cls-17" points="5584.36 2429.8 5522.44 2503.08 5097.3 2503.08 4927.58 2632.37 4927.58 2386.13 5333.43 2386.13 5394.26 2327.59 5584.36 2327.59 5584.36 2429.8"/><path class="cls-18" d="M5559.43,4446.12V3722.66c0-27.49-62.32-58.87-82.48-80.76s-26.44-89.7-26.44-106.19-158.19-50-158.19-73.27v-136.1c0-35.31,63-94.09,63-116.24V3027c0-19.51,1.95-25.36,24.38-52.68s239.5-278.14,244.38-285,4.88-24.39,4.88-48.77V2151.09c0-31,21.13-40.12,30.24-40.12s15.6-11.71,15.6-28.62V1918.48c0-11.7-48.77-60.47-61.12-72.83s-41.62-41.62-52-49.42-20.66-6.5-58.45-6.5H5334.6c-29.21,0-50-7.81-86.43-36.42s-200.29-171.67-217.19-186-71.2-14.3-93.31-22.11-47.15-28.61-47.15-86.47c0,0-5.73-1367-1-1377.72,10.4-23.49,492.58-35,492.58-35L6149.46,565.9V4565.51H5745.74Z"/><path class="cls-19" d="M5628.91,2239.72h65.35V1906.45c0-26.58-71.86-108.59-96.2-106.09-21.11,2.18,30.85,79.11,30.85,79.11v360.25Z"/><path class="cls-20" d="M3419.6,5300.9s427.55-586.48,449.62-606S4056.86,4516,4071.16,4505.1s27.32-17,48.12-17,235.41-17,252.31-17,70.23-78.4,78-90.11,23.41-26,50.72-26H4632c12.69,0,13.33,1.3,27.32,22.11s47.8,83,53,91.6,13,14.3,32.51,14.3h364.59c8.67,0,29.48-4.46,29.48-33.07V4296.46c0-15.6-2.6-24.71,27.31-52s100.15-76.73,111.85-85.84,22.11-15.6,42.92-15.6h313.44c10.4,0,308.23,182.08,308.23,182.08l177,357.05V4952Z"/><polygon class="cls-21" points="4840.11 4119.89 5314.9 4594.67 5622.85 4594.67 4987.64 4004.12 4840.11 4119.89"/><path class="cls-18" d="M4251.48,5355.74s-731.6,65.23-731.6,37.92,537-813.23,551.28-824.1,27.32-17,48.12-17,235.41-17,252.31-17,70.23-78.41,78-90.11,23.41-26,50.72-26H4632c12.69,0,13.33,1.3,27.32,22.11s47.8,83.05,53,91.6,13,14.3,32.51,14.3h364.59c8.67,0,29.48-4.46,29.48-33.07V4360.93c0-15.6-2.6-24.71,27.31-52s100.15-76.73,111.85-85.84,22.11-15.6,42.92-15.6h313.44c10.4,0,308.23,182.07,308.23,182.07l177,357.05v269.82Z"/><path class="cls-22" d="M945.25,1642.76l416.18,206.79V2194.2c0,11.71-7.81,36.89,42.91,36.89s7.81,99.67,7.81,131.34c0,15.6-46.82,114-55.93,129.6s-7.8,24.71-7.8,48.12v357.12H837.3V1668.78Z"/><path class="cls-23" d="M2562.52,1207.13c2.67,71.26,6.82,140.46,0,150.22s-613.71,680.3-644,695.26c-7.67,3.79-70.66.52-151.76-5.44-18.31-1.34-64.86-29.39-84.59-31-148.66-11.81-268-.92-289.55-.92-37.06,0-199.58-185.84-199.58-185.84V343.19L2122.08,93,3795.72,81S3503,455.19,3370.06,636.4c-42.35,57.71-72.76,86.31-134.88,86-30-.15-650.93,9.77-650.93,9.77S2560.81,1161.81,2562.52,1207.13Z"/><path class="cls-18" d="M2684,927.46c0,63.4-147.2,148.59-151.1,219.79s6.83,140.46,0,150.22-598.9,600.84-629.15,615.8c-7.67,3.79-70.66.51-151.76-5.44-18.31-1.35-64.87-29.4-84.59-31-148.66-11.82-298.09-2-319.64-2-37.06,0-214.59-105.34-214.59-105.34V784.4H2433.82l31.68-395,870.11-216.33L3457.94,81h290.95s-404.72,519.17-460.12,519.5c-61.17.36-604.74-7.82-604.74-7.82Z"/><polygon class="cls-24" points="1918.1 1598.05 1910.08 1750.96 2308.32 1352.72 2178.47 1329.2 2127.57 1296.71 1895.98 1545.87 1918.1 1598.05"/><path class="cls-18" d="M890,1642.76l416.18,206.79V2194.2c0,11.71-7.81,36.89,42.91,36.89s7.81,99.67,7.81,131.34c0,15.6-46.82,114-55.93,129.6s-7.8,24.71-7.8,48.12v357.12H782.05V1668.78Z"/><path class="cls-25" d="M742.71,2897.27h579.07c9.76,0,51.7-6.36,76.08,32.85s43.25,151.06,21.14,225.19-66.33,144.37-66.33,199v695.8c0,39,6.18,45.84-9.43,56.57S1112.4,4232,1112.4,4232L727.1,4410.63Z"/><path class="cls-26" d="M655,3985.17,1273.88,3937s205.3,251.71,232.61,251.71H1916c19.71,0,27.52,36.74,46,42.59s55.6,3.9,63.4,3.9,54.63,81.11,55.6,92.26,0,37.47,0,43.33,5.85,12.68,37.07,12.68h81.61c13,0,18.08,2.93,30.5,21.46,7.5,11.19,476.59,687.47,476.59,687.47l1007.85-4.64-229.89,349.55L638.33,5424.93Z"/><path class="cls-27" d="M1288,3962.49v191.95h230.07c33.38,0,45.14-3.55,63.77-31.95,7.28-11.11,43.54-70,57.23-93.33,3.68-6.27,4.44-7,13-7.28,7.32-.27,52.32-.12,62.65-1,13.32-1.11,244.55-284,248.9-289.94,2.63-3.61-160-122.85-160-122.85s-292.32,333.63-301.1,342.41-11.12,13.68-31.78,13.68S1288,3962.49,1288,3962.49Z"/><path class="cls-18" d="M689.71,2897.27h579.08c9.75,0,51.69-6.36,76.08,32.85s43.24,151.06,21.13,225.19-66.33,144.37-66.33,199v695.8c0,39,6.18,45.84-9.43,56.57S1059.4,4232,1059.4,4232L674.11,4410.63Z"/><path class="cls-18" d="M624,4425.94l676.84-340.74s148.37,186.64,175.68,186.64H1886c19.71,0,27.52,36.74,46,42.6s55.6,3.9,63.4,3.9,54.63,81.11,55.6,92.25,0,37.48,0,43.33,5.85,12.68,37.07,12.68h81.61c13,0,18.08,2.93,30.5,21.46,8.71,13,431.55,627.47,488.3,705.41,7.57,10.38,22.95,19.78,37,19.79,21.28,0,1143.91-.31,1143.91-.31l51.19,180.71L624,5331.1Z"/><path class="cls-28" d="M1201.16,1792.65h489.66s9.75-8.77,17.55-11.7,35.12-5.85,41-11.71,175.07-177.2,183.85-186l1.35-42.62,188.72-207.22,50.86.13L2638,876.72V517.21c0-44,14-55.92,30.05-56.68,41-2,349.63,4.47,671.49,2,35.39-.28,58.24-30.74,104.27-87.4C3545.42,250,3695.28,81,3695.28,81H0V5625.34H7026.66V0H5069.91V1412.24c0,15.61,1.71,25.36,28,46.82s205.82,184.68,225.33,184.68H5572.4c20.09,0,21.39,14.31,33.1,40.32s36.41,75.43,42.92,88.44,20.81,23.41,32.51,23.41h48.12c7.8,0,13-1.3,13,16.9v104.7c0,11.7,10.4,20.48,15.28,28.28v674c0,23.41-246.78,261.65-256.54,273.23s0,196.92,0,222.28,1.95,48.77-19.51,80-76.08,109.24-76.08,128.75v111.2c0,15.61,152.17,50.72,165.82,62.43s23.41,131.71,33.17,140,132.07,82.05,138.22,100.76,0,502.52,0,516.17-21.17,18.21-46.53,18.21H5344.74c-25.37,0-126.7,86.38-142,94.94s-14.06,13.66-14.06,54.62V4588.2c0,29.27-19.51,31.22-60.48,31.22h-58.28c-23.65,0-27.55-25.36-52.92-25.36s-272.49-3.9-291.33-3.9-54-.19-77.37-46.92-31.22-63.63-31.22-63.63-61.77,1.3-77.38,1.3-28-5.2-46.17,15.61-117.38,127.78-128.1,137.53-23.41,12.68-41,12.68H4150.82c-25.36,0-29.26,2.93-46.82,19.51s-385.55,664.49-413.09,683.11c-35.5,24-988,8.79-1014.1-2.93-20-9-543.86-787.48-565-793.33s-202.54,0-220.1,0-56.93-41.41-71.38-60.7-5.51-48-5.51-70.68-42.17-69.56-49.94-73.46-275-7.8-312.11-7.8-46.82-3.9-83.88-37.07S1205.06,4174.63,1187.5,4159s-37.07-31.21-37.07-111.2v-615c0-50.21,11.71-105,46.82-185.85s46.82-94.56,46.82-151.14V2943c0-24.71-5.85-49.44-39.66-54s-52-39.66-52-69.57V2511.21c0-17.74,9.1-27.31,36.41-66.33s85.84-119.65,93.64-135.25,11.71-24.71,11.71-39,6.5-44.88-18.21-52.35-70.23-1-83.24-14-16.9-27.31-16.9-48.12.16-54.21.16-79.78-24.88-16.46-24.88-71.08V1862.23C1151.08,1851.83,1181,1810.21,1201.16,1792.65Z"/><path class="cls-29" d="M1671.49,1369.42l246.61,228.63c8.31-8.13,15.49-15.16,16.81-16.48l1.2-40.09,185.5-204.68,48.28,1,8.58-8.58L1933,1092.51Z"/><path class="cls-30" d="M65,1510.61h1092.3c47.2,0,54.84-1.85,61.66,1.73s44.14,22.43,56.82,22.43,72-15,78.81-22.76-2.92-64.7,6.83-79.33,4.35-14.08,40.44-14.08h217.25c20,0,23.86,2.92,46.3-18.54s286.6-307.44,291.48-314.26,5.85-12.31,5.85-27.13S1987.67,81,1987.67,81H0V1450.78Z"/><path class="cls-30" d="M1409.87,1794l-91-90.68H1215l-1.07-.81c-.15-.12-15-11.45-29.74-24.38-27.67-24.35-30.88-33.26-30.88-37.84V1501h23.44v123.88c0,2.28-11.54,15.29-11.54,16.1s.18,4.56,1.79,6.12c8.73,8.47,28.89,31.56,50.69,48.21h104.43c5.7,0,99.24,98.64,99.24,98.64Z"/><path class="cls-31" d="M1452.62,81V1171.28c0,12.76-3.55,17.87-9.65,22.37-4,3-33.66,26.19-61.55,49.68-56.91,47.92-56.91,54.73-56.91,58V1407.7a54.85,54.85,0,0,0-6,7.79c-9.76,14.64-21.47,61.45-28.3,69.26s-30.24,23.41-42.91,23.41-37.07-12.69-43.89-16.26-32.52,0-79.72,0H65L0,1432.07V81Z"/><path class="cls-32" d="M1948.65,81S1929,1022.18,1929,1037s-1,20.3-5.86,27.13-287.56,295.77-310,317.22-26.34,18.54-46.3,18.54H1368.28c-12,0-20.4.11-26.68.78-8.49.92-13,2.88-17.09,7V1301.34c0-3.28,0-10.09,56.91-58,27.89-23.49,57.51-46.71,61.55-49.68,6.1-4.5,9.65-9.61,9.65-22.37V81Z"/><path class="cls-30" d="M5188.51,785.6v486.77c0,21.13,13.49,65.41,31.05,75.17s133.3,44.3,143.06,50.72,35.11,11.7,35.11,42.92,13,69.58,28.62,83.23,52.07,11,89.13,11H6011s190.53-106.48,237.35-146.88,54.62-74.22,54.62-157.45v-861H5188.51Z"/><path class="cls-28" d="M5209.26,760.3v486.77c0,21.13,14.85,50.4,32.41,60.15s148.26,49.58,158,56,33.17,22,33.17,53.24,21.46,66.33,37.06,80,29.27,13.66,66.33,13.66h495.52s190.53-106.49,237.35-146.88,54.62-74.22,54.62-157.45v-861H5209.26Z"/><path class="cls-30" d="M5240.74,5625.34V4842.1c0-43-42-78.47-42-99.19,0-32.73,116.71-64.84,174.14-87.07s59.29-24.08,59.29-38.9V4565H5356c-9.06,0-40.66-20.85-40.66-34.12V4394.62c0-18.75,27.89-44.46,44.57-44.46H6485V5625.34Z"/><path class="cls-28" d="M5272.7,5625.34v-775.7c0-42.19-41.22-77-41.22-97.35,0-32.13,114.56-63.65,170.93-85.47s58.2-23.64,58.2-38.19v-70.92h-74.76c-8.89,0-39.91-20.46-39.91-33.49v-113.8c0-22.43,27.38-43.65,43.75-43.65H6441.36V5625.34Z"/><path class="cls-30" d="M0,2686.83S1018.34,3382,1032.7,3392.35s10.46,11.64,10.46,40.25-1,613.6-1,613.6L976.88,4264l21.22-858.61L0,2700.19Z"/><path class="cls-30" d="M777,3686.44s296.32,305.82,298,324.17,0,177.37,0,197.76,12.44,27.18,36.62,50.29,93.56,110.82,103.7,128.65c9.53,16.76,10.52,32.83,11,41.68.26,4.56,63.87,10,91.73,10s25.36,15.41,25.36,32.74v168.2S1183.42,4761,1171.19,4763,0,4763,0,4763V3690.27Z"/><path class="cls-28" d="M774.25,3716.51s283.54,292.62,285.15,310.18,0,169.72,0,189.23,11.91,26,35,48.12,91.42,105.09,99.23,123.1,11,40.77,10.4,49.22,60.48,6.51,87.14,6.51,25,8.45,25,25v161s-153.14,115.84-164.85,117.74S0,4746.59,0,4746.59V3716.51Z"/><circle class="cls-30" cx="1313.27" cy="4448.56" r="39.4"/><circle class="cls-28" cx="1313.27" cy="4448.56" r="25.24"/><path class="cls-30" d="M1952.71,4822.07c-1.48-1.42-153.76-163-161.36-169.27l-1.68-1.39c-7.05-5.87-23.26-5-33.29-5l-434.6,3.32,9.76-17.71h434.39c12.92,0,21.38,7.05,28.85,13.26l1.65,1.37c7,5.78,126.17,122.82,154.62,150,3.36,3.21,338.94.36,338.94.36l17.59,25.06Z"/><polygon class="cls-33" points="1299.67 3936.95 1223.92 3895.98 1223.92 3707.73 1299.67 3707.73 1299.67 3936.95"/><polygon class="cls-34" points="1879.93 1371.59 1964.18 1371.59 1964.18 1287.34 1879.93 1371.59"/><path class="cls-35" d="M4429.11,4567.17h12.71c31.22,0,149.57,114.13,178.18,114.13h520.42c38.82,0,46.62,6.76,51.83,12.59s32.51,39,32.51,39"/><path class="cls-36" d="M1469.39,81v1103c0,13.71-12.53,24.73-21.68,31.47a604.84,604.84,0,0,0-52.45,39.67c-45.51,38.69-51.62,49.5-52,51l-1.65,94.42-.31,19-16.78,18.5V1301.34c0-3.28,0-10.09,56.91-58,27.89-23.49,57.51-46.71,61.55-49.68,6.1-4.5,9.65-9.61,9.65-22.37V81Z"/><path class="cls-36" d="M5063.41,1392.19v-7.91l82.3-82.3v-74.09c0-6.51,4.27-11.38,9.14-17.24s40.87-55.59,40.87-55.59v21.11s-41.62,51.28-43.79,55.62,0,60.26,0,73.7v46.38c0,3.9-5.2,3.9-7.81,3.9h-41.61Z"/><line class="cls-13" x1="1458.33" y1="3545.31" x2="1458.33" y2="3628.54"/><path class="cls-37" d="M1662.85,1331.28v-31.21c0-5.85.68-7.16,5.38-14.31s168.5-172.87,171.44-175.82c2.62-2.61,5.25-3.06,9.23-3.74s37.89-4.06,37.89-4.06Z"/><rect class="cls-37" x="1895.46" y="1249.44" width="15.25" height="124.66" transform="translate(1484.96 -961.48) rotate(45)"/><polygon class="cls-31" points="1662.03 1153.44 1713.69 1153.44 1713.69 1101.78 1662.03 1153.44"/><polygon class="cls-31" points="1614.51 1106.48 1666.17 1106.48 1666.17 1054.82 1614.51 1106.48"/><polygon class="cls-31" points="1566.99 1059.53 1618.65 1059.53 1618.65 1007.87 1566.99 1059.53"/><polygon class="cls-31" points="1519.47 1012.57 1571.13 1012.57 1571.13 960.91 1519.47 1012.57"/><polygon class="cls-18" points="1935 1109.86 2169.89 1337.78 2178.47 1329.2 1942.44 1101.6 1935 1109.86"/><polygon class="cls-11" points="2005.72 1520 2073.07 1504.47 2089.97 1435.74 2005.72 1520"/><g id="cnpm"><rect class="cls-32" x="1958.82" y="1595" width="1026.85" height="639.78" transform="translate(2078.14 -1187.29) rotate(45)"/><path class="cls-1" d="M1735.37,2550.27l463-463a23.83,23.83,0,0,1,16.86-7h270a23.85,23.85,0,0,0,16.92-7.05l130-130.92a23.85,23.85,0,0,0,6.92-16.71l1-270.21a23.83,23.83,0,0,1,7-16.77l463-463a23.87,23.87,0,0,1,16.86-7h584a23.85,23.85,0,0,1,16.86,7l463,463a23.79,23.79,0,0,1,7,16.85v270.06a23.85,23.85,0,0,0,7,16.86l130.94,130.93a23.84,23.84,0,0,0,16.86,7H4622.6a23.85,23.85,0,0,1,16.86,7l463,463a23.85,23.85,0,0,1,7,16.86v584a23.85,23.85,0,0,1-7,16.86l-463,463a23.86,23.86,0,0,1-16.86,7H4353a23.84,23.84,0,0,0-17.35,7.48L4208,3780.87a23.84,23.84,0,0,0-6.49,16L4197.9,4063a23.85,23.85,0,0,1-7,16.51l-464.44,466a23.82,23.82,0,0,1-17,7l-582.66-2.86a23.84,23.84,0,0,1-16.74-7l-463-463.06a23.83,23.83,0,0,1-7-16.85V3792.76a23.84,23.84,0,0,0-7-16.86L2502.15,3645a23.86,23.86,0,0,0-16.86-7H2215.24a23.83,23.83,0,0,1-16.86-7l-463-463a23.85,23.85,0,0,1-7-16.86v-584A23.85,23.85,0,0,1,1735.37,2550.27Z"/><path class="cls-38" d="M1828.6,2567.46,2266,2130.09a22.52,22.52,0,0,1,15.92-6.59h255.05a22.55,22.55,0,0,0,16-6.66l122.76-123.67a22.55,22.55,0,0,0,6.54-15.78l.93-255.25a22.57,22.57,0,0,1,6.6-15.84l437.4-437.4a22.53,22.53,0,0,1,15.92-6.6h551.67a22.57,22.57,0,0,1,15.93,6.6L4148,1706.27a22.53,22.53,0,0,1,6.6,15.92v255.1a22.52,22.52,0,0,0,6.59,15.92l123.69,123.69a22.53,22.53,0,0,0,15.92,6.6h255.1a22.54,22.54,0,0,1,15.93,6.59l437.36,437.37a22.49,22.49,0,0,1,6.6,15.92v551.67a22.53,22.53,0,0,1-6.6,15.93l-437.36,437.36a22.55,22.55,0,0,1-15.93,6.6h-254.7a22.48,22.48,0,0,0-16.39,7.07l-120.57,127.9a22.54,22.54,0,0,0-6.14,15.14l-3.38,251.39a22.51,22.51,0,0,1-6.57,15.6l-438.72,440.21a22.51,22.51,0,0,1-16.06,6.63L3143,4456.17a22.56,22.56,0,0,1-15.82-6.59l-437.41-437.41a22.56,22.56,0,0,1-6.59-15.93v-255.1a22.53,22.53,0,0,0-6.6-15.92l-123.68-123.69a22.56,22.56,0,0,0-15.93-6.59h-255.1a22.53,22.53,0,0,1-15.92-6.6L1828.6,3151a22.52,22.52,0,0,1-6.59-15.92V2583.38A22.52,22.52,0,0,1,1828.6,2567.46Z"/><path class="cls-38" d="M1237.3,3709.62v168.67h202.18c29.33,0,39.67-3.12,56-28.07,6.41-9.77,38.26-61.53,50.29-82,3.24-5.51,3.91-6.11,11.38-6.39,6.44-.24,46-.11,55.06-.87,11.71-1,214.9-249.53,218.72-254.78,2.32-3.17,100.38-1.31,119-1.31,3,0,11.92,4.77,11.92,15.61,0,8-.86,73.38-.86,117.36,0,21.1,1.19,38.64,25.36,38.64h231.5l-1.95-337.17H1760.39c-13.44,0-19,4.69-33,17.84s-293.92,334.26-301.63,342-9.78,12-27.93,12S1237.3,3709.62,1237.3,3709.62Z"/><polyline class="cls-39" points="1237.25 3791.29 1433.68 3791.29 1542.9 3682.06 1684.91 3682.06"/><path class="cls-40" d="M1575.77,3528.42c-73.22,83.47-146.12,166.79-150,170.68-7.72,7.71-9.78,12-27.93,12s-160.54-1.5-160.54-1.5v168.67h202.18c29.33,0,39.67-3.12,56-28.07,6.41-9.77,38.26-61.53,50.29-82,3.24-5.51,3.91-6.11,11.38-6.39,6.44-.24,46-.11,55.06-.87,5.53-.46,53.75-56.12,103.51-115.3Z"/><polyline class="cls-39" points="1757.04 3401.55 1521.55 3660.57 1459.87 3660.57"/><polyline class="cls-39" points="2254.31 3612.12 2037.51 3395.32 1796.27 3395.32"/><path class="cls-41" d="M1930.4,2586.22l409.37-409.37a21.07,21.07,0,0,1,14.9-6.17H2593.4a21.13,21.13,0,0,0,15-6.23l114.9-115.76a21.07,21.07,0,0,0,6.12-14.77l.88-238.91a21.11,21.11,0,0,1,6.17-14.83l409.4-409.4a21.11,21.11,0,0,1,14.91-6.17H3677.1a21.07,21.07,0,0,1,14.9,6.17l409.37,409.37a21.11,21.11,0,0,1,6.17,14.91v238.77a21.08,21.08,0,0,0,6.18,14.9l115.77,115.77a21,21,0,0,0,14.9,6.18h238.77a21.1,21.1,0,0,1,14.91,6.17l409.37,409.37a21.1,21.1,0,0,1,6.17,14.91v516.35a21.11,21.11,0,0,1-6.17,14.91l-409.37,409.37a21.11,21.11,0,0,1-14.91,6.17h-238.4a21.09,21.09,0,0,0-15.34,6.62l-112.85,119.71a21.08,21.08,0,0,0-5.74,14.18l-3.17,235.3a21,21,0,0,1-6.15,14.59l-410.64,412a21,21,0,0,1-15,6.2L3160.68,4354a21.09,21.09,0,0,1-14.8-6.17l-409.42-409.42a21.07,21.07,0,0,1-6.17-14.9V3684.78a21.11,21.11,0,0,0-6.17-14.91L2608.35,3554.1a21.11,21.11,0,0,0-14.91-6.17H2354.67a21.07,21.07,0,0,1-14.9-6.17L1930.4,3132.39a21.08,21.08,0,0,1-6.18-14.91V2601.13A21,21,0,0,1,1930.4,2586.22Z"/><polyline class="cls-39" points="2916.54 1651.29 3163.19 1404.64 3532.73 1404.64 3676.92 1548.83"/><path class="cls-42" d="M2028,2604.21l382.53-382.53a19.7,19.7,0,0,1,13.93-5.77h223.07a19.72,19.72,0,0,0,14-5.82l107.37-108.17a19.68,19.68,0,0,0,5.72-13.8l.82-223.24a19.7,19.7,0,0,1,5.77-13.86l382.56-382.56a19.7,19.7,0,0,1,13.93-5.77h482.5a19.74,19.74,0,0,1,13.93,5.77L4056.63,1851a19.7,19.7,0,0,1,5.77,13.93V2088a19.69,19.69,0,0,0,5.76,13.93l108.18,108.18a19.74,19.74,0,0,0,13.93,5.77h223.12a19.74,19.74,0,0,1,13.93,5.77l382.52,382.53a19.66,19.66,0,0,1,5.77,13.93v482.5a19.69,19.69,0,0,1-5.77,13.93L4427.31,3497.1a19.7,19.7,0,0,1-13.92,5.77H4190.61a19.68,19.68,0,0,0-14.33,6.18l-105.45,111.87a19.66,19.66,0,0,0-5.37,13.24l-3,219.87a19.71,19.71,0,0,1-5.74,13.64L3673,4252.7a19.69,19.69,0,0,1-14.05,5.79l-481.38-2.37a19.63,19.63,0,0,1-13.83-5.77l-382.57-382.56a19.69,19.69,0,0,1-5.77-13.93V3630.74a19.74,19.74,0,0,0-5.77-13.93l-108.18-108.17a19.66,19.66,0,0,0-13.93-5.77H2424.45a19.7,19.7,0,0,1-13.93-5.77L2028,3114.57a19.74,19.74,0,0,1-5.77-13.93v-482.5A19.7,19.7,0,0,1,2028,2604.21Z"/><path class="cls-43" d="M4824,2649s75-112.78,76.94-116,4.55-9.11,4.55-19.51V2184.12c0-6.83,1.63-10.73,12.36-20.48s105.34-93.64,109.24-97.54,14.64-9.76,25.37-9.76h204.83c7.81,0,14.63,1,26.34-6.83s298.8-241.57,305.31-246.78,20.7-2.6,31.15,13,60.86,88.11,63.46,93.31,1.32,160.3,1.32,173.3-5.55,24.06-18.55,34.47-98.19,65.68-104.7,72.18-13.26,9.1-43,9.1H5248.64c-8.27,0-20,6.51-26.48,14.31s-174.28,173-186,186-9.6,24.71-9.6,42.92v44.87c0,7.8-18.36,20.16-24.22,26.66v161.27c0,27.31-2.6,32.94-14.3,45.08s-166.63,274.08-166.63,274.08Z"/><path class="cls-44" d="M4917.83,2163.64c-18.48,16.44-81.36,84.25-85.4,87.92-10.73,9.76-12.35,13.66-12.35,20.48v176.42l-66.77-.65s64.17,169.86,62.21,173.11S4824,2649,4824,2649l-2.55,344.24s154.92-261.94,166.63-274.08,14.3-17.77,14.3-45.08-59.17-73.48-59.17-73.48c5.85-6.51,83.39-68.46,83.39-76.26v-83.06c0-18.21-2.11-29.92,9.6-42.92,5.58-6.21,4.53-5.2,46.72-47.08Z"/><polyline class="cls-39" points="4627.85 2361.8 4749.81 2483.76 4888.96 2483.76 4888.96 2270.84 5103.46 2056.34"/><path class="cls-38" d="M5450.51,4258.49h193c17.56,0,31.21-3.55,31.21-27V4013s-54.62-42.92-68.28-50.72-17.55-12.11-35.11-12.11h-236c-27.32,0-28.29,2.36-41-11.3s-81-77.06-85.84-81-4.87-11.7-4.87-26.34-6.83-20.48-27.32-39-233.12-217.52-240.93-226.3-8.77-12.68-8.77-26.34V3425.83c0-10.73-1.61-23.41-13-34.14s-78.7-82.37-78.7-82.37l-190.2,198.45Z"/><path class="cls-45" d="M5102.47,3725.29A171.39,171.39,0,0,1,4926.6,3437"/><polygon class="cls-46" points="5273.3 3100.17 5047.57 3325.51 4671.02 3325.51 4444.77 3100.17 4444.77 2620.48 4671.25 2395.41 5047.57 2395.91 5273.3 2620.48 5273.3 3100.17"/><polygon class="cls-46" points="1550.23 3100.17 1775.97 3325.51 2152.51 3325.51 2378.76 3100.17 2378.76 2620.48 2152.28 2395.41 1775.97 2395.91 1550.23 2620.48 1550.23 3100.17"/><polygon class="cls-46" points="3179.13 3848.62 2953.79 4074.35 2953.79 4450.89 3179.13 4677.14 3658.81 4677.14 3883.88 4450.67 3883.38 4074.35 3658.81 3848.62 3179.13 3848.62"/><polygon class="cls-38" points="4534.25 1624.97 4547.7 1611.51 4582.71 1611.51 4660.64 1689.43 4660.64 1724.44 4647.18 1737.9 4534.25 1624.97"/><polygon class="cls-41" points="4431.43 1629.97 4455.94 1605.46 4519.71 1605.46 4661.64 1747.39 4661.64 1811.15 4637.13 1835.66 4431.43 1629.97"/><polygon class="cls-42" points="4279 1655.19 4319.25 1614.94 4423.96 1614.94 4657.04 1848.01 4657.04 1952.72 4616.78 1992.98 4279 1655.19"/><path class="cls-36" d="M3754.7,4318.36a51.13,51.13,0,0,1-36.39-15.07l-184-184a41.81,41.81,0,0,0-29.77-12.34H3332a41.83,41.83,0,0,0-29.78,12.34l-184,184a51.12,51.12,0,0,1-36.39,15.07h-657a51.13,51.13,0,0,1-36.39-15.07l-413-413a51.13,51.13,0,0,1-15.08-36.39v-657a51.15,51.15,0,0,1,15.08-36.4l183.9-183.9a42.35,42.35,0,0,0,12.33-29.93l-.63-171.94a41.87,41.87,0,0,0-12.23-29.51l-183.51-184.86a51.15,51.15,0,0,1-14.94-36.26v-676.5a4.72,4.72,0,0,1,1.37-3.31l440.37-440.37a4.68,4.68,0,0,1,3.31-1.37h676.41a51.12,51.12,0,0,1,36.39,15.07l184,184a41.82,41.82,0,0,0,29.78,12.33h172.62a41.8,41.8,0,0,0,29.77-12.33l184-184a51.13,51.13,0,0,1,36.39-15.07h657a51.12,51.12,0,0,1,36.39,15.07l413,413a51.13,51.13,0,0,1,15.08,36.4v657a51.09,51.09,0,0,1-15.08,36.39l-183.39,183.4a42.27,42.27,0,0,0-12.32,31l5.13,173.64a42,42,0,0,0,11.91,28.13l179.19,184.08a51.17,51.17,0,0,1,14.59,35.81l1.12,660.39a51.74,51.74,0,0,1-15.25,36.66l-414,409.94a51.17,51.17,0,0,1-36.22,14.89Z"/><path class="cls-32" d="M4411.73,1407.24a46.74,46.74,0,0,1,33.08,13.7l413,413a46.82,46.82,0,0,1,13.7,33.09v657a46.82,46.82,0,0,1-13.7,33.09l-183.4,183.39A46.79,46.79,0,0,0,4660.7,2775l5.12,173.65a46.74,46.74,0,0,0,13.24,31.25l179.19,184.09a46.74,46.74,0,0,1,13.26,32.55l1.12,660.39a46.77,46.77,0,0,1-13.86,33.33l-414,409.93a46.76,46.76,0,0,1-32.92,13.54H3754.7a46.78,46.78,0,0,1-33.08-13.7l-184-184a46.79,46.79,0,0,0-33.08-13.71H3332a46.79,46.79,0,0,0-33.09,13.71l-184,184a46.78,46.78,0,0,1-33.08,13.7h-657a46.78,46.78,0,0,1-33.08-13.7l-413-413a46.79,46.79,0,0,1-13.71-33.09v-657a46.79,46.79,0,0,1,13.71-33.09l183.9-183.9a46.81,46.81,0,0,0,13.7-33.25l-.63-172a46.8,46.8,0,0,0-13.59-32.78l-183.5-184.87a46.78,46.78,0,0,1-13.59-33v-676.5l440.37-440.37h676.41a46.74,46.74,0,0,1,33.08,13.7l184,184a46.82,46.82,0,0,0,33.09,13.7h172.62a46.82,46.82,0,0,0,33.08-13.7l184-184a46.74,46.74,0,0,1,33.08-13.7h657m0-9.36h-657a55.81,55.81,0,0,0-39.7,16.44l-184,184a37.19,37.19,0,0,1-26.46,11H3332a37.19,37.19,0,0,1-26.47-11l-184-184a55.78,55.78,0,0,0-39.7-16.44H2405.4a9.31,9.31,0,0,0-6.61,2.74L1958.42,1841a9.32,9.32,0,0,0-2.74,6.62v676.5a55.81,55.81,0,0,0,16.29,39.56l183.51,184.86a37.23,37.23,0,0,1,10.87,26.23l.63,171.94a37.69,37.69,0,0,1-11,26.61l-183.9,183.9a55.78,55.78,0,0,0-16.44,39.7v657a55.78,55.78,0,0,0,16.44,39.7l413,413a55.81,55.81,0,0,0,39.7,16.44h657a55.78,55.78,0,0,0,39.7-16.44l184-184a37.23,37.23,0,0,1,26.47-11h172.62a37.22,37.22,0,0,1,26.46,11l184,184a55.81,55.81,0,0,0,39.7,16.44h657.16a55.79,55.79,0,0,0,39.51-16.25l414-409.94a56.46,56.46,0,0,0,16.64-40l-1.12-660.38a55.92,55.92,0,0,0-15.91-39.07l-179.2-184.08a37.4,37.4,0,0,1-10.59-25l-5.12-173.64a37.59,37.59,0,0,1,10.95-27.57l183.39-183.4a55.75,55.75,0,0,0,16.45-39.7V1867a55.75,55.75,0,0,0-16.45-39.7l-413-413a55.78,55.78,0,0,0-39.7-16.44Z"/><path class="cls-47" d="M2178.47,3708.28v-560.6a39.91,39.91,0,0,1,11.69-28.23l156.91-156.91a39.91,39.91,0,0,0,11.69-28.37l-.54-146.71a40,40,0,0,0-11.59-28l-156.57-157.73a39.86,39.86,0,0,1-11.59-28.12V1996.41l375.74-375.74h577.13a40,40,0,0,1,28.23,11.69l157,157a39.92,39.92,0,0,0,28.23,11.7h147.28a39.92,39.92,0,0,0,28.23-11.7l157-157a40,40,0,0,1,28.23-11.69h560.6a39.93,39.93,0,0,1,28.22,11.69l352.36,352.36a39.89,39.89,0,0,1,11.69,28.23v560.59a39.89,39.89,0,0,1-11.69,28.23l-156.48,156.48a39.94,39.94,0,0,0-11.68,29.41l4.37,148.16a39.93,39.93,0,0,0,11.3,26.66l152.89,157.07a39.94,39.94,0,0,1,11.32,27.78l1,563.46a40,40,0,0,1-11.83,28.44L4294.28,4089a39.92,39.92,0,0,1-28.09,11.55H3705.48a39.91,39.91,0,0,1-28.23-11.69l-157-157a40,40,0,0,0-28.23-11.69H3344.77a40,40,0,0,0-28.23,11.69l-157,157a39.91,39.91,0,0,1-28.23,11.69h-560.6a39.89,39.89,0,0,1-28.22-11.69l-352.36-352.35A39.91,39.91,0,0,1,2178.47,3708.28Z"/><rect class="cls-48" x="2052.91" y="1378.07" width="390.71" height="621.16" transform="translate(1852.56 -1095.17) rotate(45)"/><rect class="cls-49" x="2091.46" y="1252.54" width="61.24" height="624.34" transform="translate(1727.96 -1042.24) rotate(45)"/><circle class="cls-41" cx="4983.16" cy="3682.32" r="16.13"/><polyline class="cls-45" points="4933.23 3776.56 5087.22 3776.56 5117.71 3807.05 5117.71 3846.24 5489 4217.52 5674.75 4217.52"/><polygon class="cls-36" points="1788.72 3399.09 1762.58 3399.09 1775.65 3378.17 1788.72 3399.09"/></g></g></g></g></svg>