<svg width="200" height="200" viewBox="0 0 200 200" fill="none" xmlns="http://www.w3.org/2000/svg">
<path d="M162.865 179.05C162.64 186.163 156.615 192.418 149.521 192.826C116.507 194.669 83.4933 194.669 50.4795 192.826C43.3842 192.418 37.3591 186.163 37.1348 179.05C35.7525 133.399 35.6332 87.7484 36.7761 42.0974C36.9621 34.9841 42.9963 28.7906 50.141 28.4415C83.38 26.8698 116.619 26.8698 149.858 28.4415C157.003 28.791 163.037 34.9845 163.224 42.0974C164.367 87.7484 164.248 133.399 162.865 179.05Z" fill="#EDF3FF"/>
<path d="M150.754 110.002C150.713 132.016 150.444 154.029 149.946 176.043C149.899 178.141 148.235 179.845 146.138 179.937C124.255 180.894 102.373 181.171 80.4912 180.766C103.397 157.632 127.174 133.342 150.754 110.002Z" fill="#E7EFFF"/>
<path d="M53.6275 41.4037C51.5106 41.4798 49.8249 43.1987 49.7857 45.3166C48.9801 88.8922 49.07 132.467 50.0555 176.043C50.1029 178.141 51.7666 179.845 53.8636 179.937C62.7393 180.325 71.6148 180.601 80.4907 180.766C85.8742 180.867 90.7406 178.683 94.2712 175.096C97.7996 171.509 99.9996 166.518 100 161.019C100 152.9 100 144.782 100 136.663C99.9992 132.995 102.958 130.021 106.608 130.014C114.684 129.998 122.759 129.95 130.835 129.874C136.305 129.821 141.279 127.542 144.887 123.943C148.495 120.341 150.744 115.416 150.753 110.002C150.793 88.4401 150.614 66.8785 150.215 45.3165C150.176 43.1987 148.49 41.4798 146.373 41.4037C115.458 40.2919 84.5428 40.2919 53.6275 41.4037Z" fill="#FAFBFF"/>
<path d="M99.9992 40.5697C92.7679 40.5666 86.94 34.6924 86.9925 27.3652C87.0464 20.0406 92.8743 14.0004 99.9992 14C107.124 14 112.952 20.0402 113.006 27.3652C113.058 34.6932 107.23 40.5666 99.9992 40.5697Z" fill="#FAFBFF"/>
<path d="M133.7 26.4167C130.556 26.3256 127.413 26.247 124.269 26.1813C121.46 26.1225 118.952 24.2575 118.044 21.5357C117.734 20.6051 117.423 19.6745 117.113 18.7439C114.589 11.1917 107.706 5.99741 99.9994 6C92.2923 5.99741 85.4102 11.1908 82.8851 18.7431C82.5751 19.6737 82.2646 20.6042 81.9541 21.5348C81.0468 24.257 78.5377 26.1217 75.7296 26.1804C72.5861 26.2461 69.4422 26.3247 66.2983 26.4159C64.4971 26.4681 63.0145 27.9906 62.9856 29.8086C62.9189 34.1997 62.859 38.5908 62.8049 42.982C62.7828 44.8004 64.2366 46.2412 66.0516 46.204C88.6829 45.737 111.315 45.737 133.946 46.204C135.761 46.2416 137.215 44.7999 137.193 42.982C137.139 38.5908 137.079 34.1997 137.012 29.8086C136.985 27.9906 135.501 26.4694 133.7 26.4167ZM99.9994 25.9272C96.3952 25.9268 93.4825 22.9722 93.4963 19.3047C93.5101 15.6377 96.4219 12.6416 99.9994 12.6424C103.577 12.6424 106.489 15.6377 106.503 19.3047C106.516 22.9726 103.604 25.9268 99.9994 25.9272Z" fill="#DFEAFF"/>
<g filter="url(#filter0_f_7606_47780)">
<path d="M149 118.493C129.417 137.927 109.589 157.639 90.4328 177C87.7838 156.364 81.0038 130.528 77.7264 109.13C77.3295 106.539 79.5393 104.331 82.127 104.751C103.433 108.211 128.37 116.113 149 118.493Z" fill="#EEF3FF"/>
</g>
<path d="M144.886 123.943C127.895 140.896 110.891 158.207 94.2702 175.096C92.0039 157.346 89.7028 139.598 87.4248 121.866C87.0907 119.266 89.3071 117.054 91.9072 117.39C109.578 119.675 127.241 121.897 144.886 123.943Z" fill="#FAFBFF"/>
<defs>
<filter id="filter0_f_7606_47780" x="73.6797" y="100.7" width="79.3203" height="80.3003" filterUnits="userSpaceOnUse" color-interpolation-filters="sRGB">
<feFlood flood-opacity="0" result="BackgroundImageFix"/>
<feBlend mode="normal" in="SourceGraphic" in2="BackgroundImageFix" result="shape"/>
<feGaussianBlur stdDeviation="2" result="effect1_foregroundBlur_7606_47780"/>
</filter>
</defs>
</svg>
