<svg width="80" height="80" viewBox="0 0 80 80" fill="none" xmlns="http://www.w3.org/2000/svg">
<path d="M2.69495 72.8899C1.54568 71.1732 0.719813 69.2217 0.304545 67.1226L0.795039 67.0256C0.601533 66.0474 0.5 65.0358 0.5 64V60H0V52H0.5V44H0V36H0.5V28H0V20H0.5V16C0.5 14.9642 0.601533 13.9526 0.795039 12.9744L0.304545 12.8774C0.719812 10.7783 1.54567 8.82682 2.69495 7.11015L3.11044 7.38831C4.24221 5.6978 5.6978 4.24221 7.38831 3.11044L7.11015 2.69495C8.82681 1.54567 10.7783 0.719813 12.8774 0.304545L12.9744 0.795039C13.9526 0.601533 14.9642 0.5 16 0.5H20V0H28V0.5H36V0H44V0.5H52V0H60V0.5H64C65.0358 0.5 66.0474 0.601533 67.0256 0.795039L67.1226 0.304545C69.2217 0.719813 71.1732 1.54567 72.8898 2.69495L72.6117 3.11044C74.3022 4.24221 75.7578 5.6978 76.8896 7.38831L77.305 7.11015C78.4543 8.82681 79.2802 10.7783 79.6955 12.8774L79.205 12.9744C79.3985 13.9526 79.5 14.9642 79.5 16V20H80V28H79.5V36H80V44H79.5V52H80V60H79.5V64C79.5 65.0358 79.3985 66.0474 79.205 67.0256L79.6955 67.1226C79.2802 69.2217 78.4543 71.1732 77.305 72.8898L76.8896 72.6117C75.7578 74.3022 74.3022 75.7578 72.6117 76.8896L72.8898 77.305C71.1732 78.4543 69.2217 79.2802 67.1226 79.6955L67.0256 79.205C66.0474 79.3985 65.0358 79.5 64 79.5H60V80H52V79.5H44V80H36V79.5H28V80H20V79.5H16C14.9642 79.5 13.9526 79.3985 12.9744 79.205L12.8774 79.6955C10.7783 79.2802 8.82682 78.4543 7.11015 77.305L7.38831 76.8896C5.6978 75.7578 4.24221 74.3022 3.11044 72.6117L2.69495 72.8899Z" fill="white" stroke="#999999" stroke-dasharray="8 8"/>
<path fillRule="evenodd" clipRule="evenodd" d="M40 32C40.5523 32 41 32.4477 41 33V47C41 47.5523 40.5523 48 40 48C39.4477 48 39 47.5523 39 47V33C39 32.4477 39.4477 32 40 32Z" fill="#999999"/>
<path fillRule="evenodd" clipRule="evenodd" d="M32 40C32 39.4477 32.4477 39 33 39H47C47.5523 39 48 39.4477 48 40C48 40.5523 47.5523 41 47 41H33C32.4477 41 32 40.5523 32 40Z" fill="#999999"/>
</svg>
